<svg xmlns="http://www.w3.org/2000/svg" xmlns:xlink="http://www.w3.org/1999/xlink" viewBox="0 0 92.88 92.98"><defs><style>.cls-1,.cls-10,.cls-11,.cls-12,.cls-13,.cls-8,.cls-9{fill:none;}.cls-2{fill:#4d4d4d;}.cls-3{clip-path:url(#clip-path);}.cls-4{fill:#e6e6e6;}.cls-11,.cls-4{stroke:#b3b3b3;}.cls-10,.cls-11,.cls-12,.cls-13,.cls-4,.cls-8,.cls-9{stroke-miterlimit:10;}.cls-4,.cls-9{stroke-width:0.5px;}.cls-5{fill:#ccc;}.cls-6{fill:#b3b3b3;}.cls-7{fill:#fff;}.cls-12,.cls-13,.cls-8{stroke:#fff;stroke-dasharray:2 2 4 2 200;}.cls-10,.cls-11,.cls-8{stroke-width:0.75px;}.cls-9{stroke:#4d4d4d;}.cls-10{stroke:#ccc;}.cls-10,.cls-11{stroke-linecap:round;}.cls-12{stroke-width:1.5px;}</style><clipPath id="clip-path"><path class="cls-1" d="M46.5,33.65a13,13,0,1,0,13,13.06A13,13,0,0,0,46.5,33.65Zm-.08,19.81a6.81,6.81,0,1,1,6.84-6.78A6.8,6.8,0,0,1,46.42,53.46Z"/></clipPath></defs><title>reel only</title><g id="single_reel_outline_strokes" data-name="single reel outline strokes"><path class="cls-2" d="M46.62,1A45.62,45.62,0,1,0,92.06,46.83,45.61,45.61,0,0,0,46.62,1Zm-.2,52.42a6.81,6.81,0,1,1,6.84-6.78A6.8,6.8,0,0,1,46.42,53.46Z"/><path class="cls-2" d="M46.45,53.71h0a7.05,7.05,0,0,1-7-7.08,7,7,0,0,1,7.06-7h0a7.06,7.06,0,0,1,0,14.11Zm0-13.61a6.56,6.56,0,0,0,0,13.11h0a6.56,6.56,0,0,0,0-13.11Z"/><g id="inner_wheel" data-name="inner wheel"><g class="cls-3"><path class="cls-4" d="M46.45,46.66l-8.81-8.81a12,12,0,0,1,8.81-3.65Z"/><path class="cls-4" d="M46.45,46.66H34a12,12,0,0,1,3.65-8.81Z"/><path class="cls-4" d="M46.45,46.66l-8.81,8.8A12,12,0,0,1,34,46.66Z"/><path class="cls-4" d="M46.45,46.66V59.11a12,12,0,0,1-8.81-3.65Z"/><path class="cls-4" d="M46.45,46.66l8.8,8.8a12,12,0,0,1-8.8,3.65Z"/><path class="cls-4" d="M46.45,46.66H58.9a12,12,0,0,1-3.65,8.8Z"/><path class="cls-4" d="M46.45,46.66l8.8-8.81a12,12,0,0,1,3.65,8.81Z"/><path class="cls-4" d="M46.45,46.66V34.2a12,12,0,0,1,8.8,3.65Z"/></g></g><path class="cls-5" d="M46.45,60H46.4a13.38,13.38,0,0,1,0-26.75h.06a13.38,13.38,0,0,1,0,26.75Zm0-26A12.62,12.62,0,0,0,33.82,46.61h0A12.64,12.64,0,0,0,46.4,59.28h.05A12.63,12.63,0,0,0,46.5,34Zm-13,12.58h0Z"/><path class="cls-6" d="M46.45,54h0a7.38,7.38,0,0,1,0-14.75h0a7.38,7.38,0,0,1,0,14.75Zm0-14a6.63,6.63,0,0,0,0,13.25h0a6.63,6.63,0,0,0,0-13.25h0Z"/><path class="cls-5" d="M46.45,53.53h0a6.88,6.88,0,0,1,0-13.75h0a6.88,6.88,0,0,1,0,13.75Zm0-13a6.13,6.13,0,0,0,0,12.25h0a6.13,6.13,0,0,0,6.12-6.1,6.13,6.13,0,0,0-6.1-6.15h0Z"/><path class="cls-7" d="M24.48,81c-.58-.37-1.14-.74-1.7-1.13l.86-1.23c.54.37,1.08.74,1.64,1.09Zm-3.34-2.34C20.07,77.84,19,77,18.05,76l1-1.09a36.51,36.51,0,0,0,3,2.56ZM16.6,74.59A40.62,40.62,0,0,1,5.21,46.38c0-1.25.06-2.53.17-3.79A40.81,40.81,0,0,1,30.94,8.43l.56,1.39A39.31,39.31,0,0,0,6.88,42.73c-.12,1.21-.17,2.44-.17,3.65a39.15,39.15,0,0,0,11,27.17Z"/><path class="cls-7" d="M68.28,81.16l-.79-1.27A39.08,39.08,0,0,0,86,50.05c.12-1.22.17-2.44.17-3.65a39.08,39.08,0,0,0-6-20.78l1.27-.79A40.54,40.54,0,0,1,87.71,46.4c0,1.25-.06,2.53-.17,3.78A40.55,40.55,0,0,1,68.28,81.16ZM79.14,24c-.75-1.08-1.56-2.12-2.4-3.11l1.14-1c.87,1,1.71,2.11,2.49,3.22Zm-3.71-4.57C75,19,74.51,18.48,74,18l1-1.08q.73.71,1.44,1.44Z"/><path class="cls-7" d="M25.36,72.11a33.22,33.22,0,0,1-13-25.95A31.4,31.4,0,0,1,13,39.83a31.87,31.87,0,0,1,15-21l.52.86A30.81,30.81,0,0,0,13.37,46.16,32.19,32.19,0,0,0,26,71.32Zm4.88-53.44-.46-.88a33.07,33.07,0,0,1,3.69-1.67l.36.93A35.13,35.13,0,0,0,30.24,18.67Zm5.45-2.27-.3-.95c.65-.2,1.3-.39,2-.55l.24,1C37,16,36.32,16.21,35.69,16.4Z"/><path class="cls-7" d="M62.23,75.94l-.44-.89c.59-.29,1.17-.6,1.74-.92L64,75C63.44,75.33,62.84,75.65,62.23,75.94Zm3.53-2-.55-.84a31.59,31.59,0,0,0,3.17-2.34l.64.77A33.44,33.44,0,0,1,65.76,73.94Zm4.78-3.76-.69-.73a30.59,30.59,0,0,0,9-16.18,30.15,30.15,0,0,0,.63-6.13A31.61,31.61,0,0,0,71,25.8l.74-.67a32.57,32.57,0,0,1,8.72,22,32.21,32.21,0,0,1-.64,6.33A31.73,31.73,0,0,1,70.54,70.18Z"/><path class="cls-8" d="M71.38,40A25.66,25.66,0,0,1,48.81,72.4"/><path class="cls-8" d="M23.39,57.93a25.72,25.72,0,0,1,26.13-37.2"/></g><g id="single_reel" data-name="single reel"><path class="cls-2" d="M46.62,1A45.62,45.62,0,1,0,92.06,46.83,45.61,45.61,0,0,0,46.62,1Zm-.2,52.42a6.81,6.81,0,1,1,6.84-6.78A6.8,6.8,0,0,1,46.42,53.46Z"/><path class="cls-9" d="M46.42,53.46a6.81,6.81,0,1,0-6.78-6.83A6.81,6.81,0,0,0,46.42,53.46Z"/><g id="inner_wheel-2" data-name="inner wheel"><g class="cls-3"><path class="cls-4" d="M46.45,46.66l-8.81-8.81a12,12,0,0,1,8.81-3.65Z"/><path class="cls-4" d="M46.45,46.66H34a12,12,0,0,1,3.65-8.81Z"/><path class="cls-4" d="M46.45,46.66l-8.81,8.8A12,12,0,0,1,34,46.66Z"/><path class="cls-4" d="M46.45,46.66V59.11a12,12,0,0,1-8.81-3.65Z"/><path class="cls-4" d="M46.45,46.66l8.8,8.8a12,12,0,0,1-8.8,3.65Z"/><path class="cls-4" d="M46.45,46.66H58.9a12,12,0,0,1-3.65,8.8Z"/><path class="cls-4" d="M46.45,46.66l8.8-8.81a12,12,0,0,1,3.65,8.81Z"/><path class="cls-4" d="M46.45,46.66V34.2a12,12,0,0,1,8.8,3.65Z"/></g></g><path class="cls-10" d="M33.45,46.61a13,13,0,1,1,12.95,13A13,13,0,0,1,33.45,46.61Z"/><path class="cls-11" d="M46.47,39.65a7,7,0,1,0,7,7A7,7,0,0,0,46.47,39.65Z"/><path class="cls-10" d="M46.47,40.16A6.5,6.5,0,1,0,53,46.68,6.48,6.48,0,0,0,46.47,40.16Z"/><path class="cls-12" d="M24.88,80.37A40,40,0,0,1,31.22,9.13"/><path class="cls-12" d="M74.56,17.49a40,40,0,0,1-6.68,63"/><path class="cls-13" d="M37.47,15.38a32.14,32.14,0,0,0-24,24.55A32.13,32.13,0,0,0,25.67,71.71"/><path class="cls-13" d="M62,75.49a31.45,31.45,0,0,0,9.38-50"/><path class="cls-8" d="M71.38,40A25.66,25.66,0,0,1,48.81,72.4"/><path class="cls-8" d="M23.39,57.93a25.72,25.72,0,0,1,26.13-37.2"/></g></svg>