<svg id="Layer_1" data-name="Layer 1" xmlns="http://www.w3.org/2000/svg" xmlns:xlink="http://www.w3.org/1999/xlink" preserveAspectRatio="none" viewBox="0 0 250 350.5">
  <defs>
    <style>
      .cls-1 {
        fill: #003148;
      }

      .cls-1, .cls-10, .cls-11, .cls-12, .cls-14, .cls-15, .cls-16, .cls-17, .cls-18, .cls-19, .cls-2, .cls-20, .cls-21, .cls-22, .cls-23, .cls-24, .cls-25, .cls-26, .cls-27, .cls-28, .cls-29, .cls-3, .cls-30, .cls-31, .cls-32, .cls-33, .cls-34, .cls-35, .cls-36, .cls-37, .cls-38, .cls-39, .cls-4, .cls-40, .cls-41, .cls-42, .cls-43, .cls-44, .cls-45, .cls-46, .cls-47, .cls-48, .cls-49, .cls-5, .cls-50, .cls-51, .cls-6, .cls-7, .cls-8, .cls-9 {
        fill-rule: evenodd;
      }

      .cls-2 {
        fill: #774977;
      }

      .cls-3 {
        fill: #ff6f6f;
      }

      .cls-4 {
        fill: #ffffc7;
      }

      .cls-5 {
        fill: #ffb7b7;
      }

      .cls-6 {
        fill: #ffff5c;
      }

      .cls-7 {
        fill: #0cc;
      }

      .cls-8 {
        fill: #ffff29;
      }

      .cls-9 {
        fill: #c06;
      }

      .cls-10, .cls-13 {
        fill: #fff;
      }

      .cls-11 {
        fill: #ffff9c;
      }

      .cls-12 {
        fill: #408cac;
      }

      .cls-14 {
        fill: url(#linear-gradient);
      }

      .cls-15 {
        fill: url(#blue_to_teal);
      }

      .cls-16 {
        fill: #d4f6f6;
      }

      .cls-17 {
        fill: url(#linear-gradient-2);
      }

      .cls-18 {
        fill: #ff0;
      }

      .cls-19 {
        fill: url(#blue_to_teal-2);
      }

      .cls-20 {
        fill: url(#blue_to_yellow);
      }

      .cls-21 {
        fill: url(#yellow_to_coral);
      }

      .cls-22 {
        fill: url(#pinks);
      }

      .cls-23 {
        fill: #1fd2d2;
      }

      .cls-24 {
        fill: url(#linear-gradient-3);
      }

      .cls-25 {
        fill: url(#linear-gradient-4);
      }

      .cls-26 {
        fill: #f2ae72;
      }

      .cls-27 {
        fill: #ff7272;
      }

      .cls-28 {
        fill: #3686a8;
      }

      .cls-29 {
        fill: #ff7474;
      }

      .cls-30 {
        fill: #eca1c6;
      }

      .cls-31 {
        fill: #f66;
      }

      .cls-32 {
        fill: #d9e021;
      }

      .cls-33 {
        fill: url(#linear-gradient-5);
      }

      .cls-34 {
        fill: #247ba0;
      }

      .cls-35 {
        fill: #10a8dd;
      }

      .cls-36 {
        fill: url(#yellow_to_coral-2);
      }

      .cls-37 {
        fill: #c36;
      }

      .cls-38 {
        fill: url(#blue_to_yellow-2);
      }

      .cls-39 {
        fill: url(#pinks-2);
      }

      .cls-40 {
        fill: #70c1b3;
      }

      .cls-41 {
        fill: url(#linear-gradient-6);
      }

      .cls-42 {
        fill: #fdfeff;
      }

      .cls-43 {
        fill: #fcee21;
      }

      .cls-44 {
        fill: #636;
      }

      .cls-45 {
        fill: #ff4040;
      }

      .cls-46 {
        fill: #feffff;
      }

      .cls-47 {
        fill: #ffbaba;
      }

      .cls-48 {
        fill: #5b4466;
      }

      .cls-49 {
        fill: #603;
      }

      .cls-50 {
        fill: #ccf1f6;
      }

      .cls-51 {
        fill: url(#linear-gradient-7);
      }
    </style>
    <linearGradient id="linear-gradient" x1="25.12" y1="275.11" x2="74.16" y2="226.08" gradientUnits="userSpaceOnUse">
      <stop offset="0" stop-color="aqua"/>
      <stop offset="0.07" stop-color="#0aecf1"/>
      <stop offset="0.32" stop-color="#2aabc0"/>
      <stop offset="0.55" stop-color="#479"/>
      <stop offset="0.74" stop-color="#56527d"/>
      <stop offset="0.9" stop-color="#623b6c"/>
      <stop offset="1" stop-color="#636"/>
    </linearGradient>
    <linearGradient id="blue_to_teal" data-name="blue to teal" x1="169.56" y1="218.59" x2="206.03" y2="182.12" gradientUnits="userSpaceOnUse">
      <stop offset="0" stop-color="#24e3c6"/>
      <stop offset="1" stop-color="#247ba0"/>
    </linearGradient>
    <linearGradient id="linear-gradient-2" x1="87.92" y1="237.43" x2="136.96" y2="188.4" gradientUnits="userSpaceOnUse">
      <stop offset="0" stop-color="#cd278f"/>
      <stop offset="1" stop-color="#636"/>
    </linearGradient>
    <linearGradient id="blue_to_teal-2" x1="50.24" y1="276.32" x2="74.16" y2="300.23" xlink:href="#blue_to_teal"/>
    <linearGradient id="blue_to_yellow" data-name="blue to yellow" x1="125.6" y1="199.75" x2="174.64" y2="150.72" gradientUnits="userSpaceOnUse">
      <stop offset="0" stop-color="#0cc"/>
      <stop offset="1" stop-color="#fcee21"/>
    </linearGradient>
    <linearGradient id="yellow_to_coral" data-name="yellow to coral" x1="131.88" y1="231.15" x2="168.36" y2="194.68" gradientUnits="userSpaceOnUse">
      <stop offset="0" stop-color="#ff0"/>
      <stop offset="0.17" stop-color="#ffdd17"/>
      <stop offset="0.44" stop-color="#ffaa39"/>
      <stop offset="0.68" stop-color="#ff8551"/>
      <stop offset="0.88" stop-color="#ff6e60"/>
      <stop offset="1" stop-color="#f66"/>
    </linearGradient>
    <linearGradient id="pinks" x1="25.12" y1="212.91" x2="74.16" y2="212.91" gradientUnits="userSpaceOnUse">
      <stop offset="0" stop-color="#f66"/>
      <stop offset="1" stop-color="#c36"/>
    </linearGradient>
    <linearGradient id="linear-gradient-3" x1="207.24" y1="231.15" x2="243.72" y2="194.68" gradientUnits="userSpaceOnUse">
      <stop offset="0" stop-color="#636"/>
      <stop offset="1" stop-color="#cd278f"/>
    </linearGradient>
    <linearGradient id="linear-gradient-4" x1="119.32" y1="268.83" x2="155.8" y2="232.36" gradientUnits="userSpaceOnUse">
      <stop offset="0" stop-color="aqua"/>
      <stop offset="1" stop-color="#247ba0"/>
    </linearGradient>
    <linearGradient id="linear-gradient-5" x1="87.33" y1="275.7" x2="112.43" y2="250.61" gradientUnits="userSpaceOnUse">
      <stop offset="0" stop-color="#662d91"/>
      <stop offset="0.17" stop-color="#883a87"/>
      <stop offset="0.44" stop-color="#bb4d79"/>
      <stop offset="0.68" stop-color="#e05a6f"/>
      <stop offset="0.88" stop-color="#f76368"/>
      <stop offset="1" stop-color="#f66"/>
    </linearGradient>
    <linearGradient id="yellow_to_coral-2" x1="62.8" y1="237.43" x2="111.84" y2="188.4" xlink:href="#yellow_to_coral"/>
    <linearGradient id="blue_to_yellow-2" x1="62.8" y1="337.91" x2="111.84" y2="288.88" xlink:href="#blue_to_yellow"/>
    <linearGradient id="pinks-2" data-name="pinks" x1="194.68" y1="268.83" x2="231.16" y2="232.36" xlink:href="#pinks"/>
    <linearGradient id="linear-gradient-6" x1="106.76" y1="306.51" x2="143.24" y2="270.04" gradientUnits="userSpaceOnUse">
      <stop offset="0" stop-color="#f66"/>
      <stop offset="0.12" stop-color="#ff6e60"/>
      <stop offset="0.32" stop-color="#ff8551"/>
      <stop offset="0.56" stop-color="#ffaa39"/>
      <stop offset="0.83" stop-color="#ffdd17"/>
      <stop offset="1" stop-color="#ff0"/>
    </linearGradient>
    <linearGradient id="linear-gradient-7" x1="150.72" y1="275.11" x2="199.76" y2="226.08" gradientUnits="userSpaceOnUse">
      <stop offset="0" stop-color="#009292"/>
      <stop offset="1" stop-color="#d4ff3f"/>
    </linearGradient>
  </defs>
  <title>6e7c24af-6daa-4e1c-bf83-a3e4434a16f5</title>
  <g>
    <polygon class="cls-1" points="0 125.6 23.9 125.6 23.9 174.6 0 174.6 0 125.6 0 125.6"/>
    <path class="cls-2" d="M8.4,157h2.8v6.4A8.7,8.7,0,0,0,8.4,157Z"/>
    <path class="cls-2" d="M15.5,157H12.6v6.4a8.7,8.7,0,0,1,2.8-6.5Z"/>
    <path class="cls-2" d="M12.6,168.8v-2.3a2.4,2.4,0,0,0,1.7,2.3Z"/>
    <polygon class="cls-2" points="12.6 157.3 11.3 157.3 11.3 168.8 12.6 168.8 12.6 157.3 12.6 157.3"/>
    <path class="cls-2" d="M11.3,168.8v-2.3a2.4,2.4,0,0,1-1.7,2.3Z"/>
    <path class="cls-3" d="M4.6,136.9l-2,11.4c-.9,5.1,4.2,9.4,9.4,9.4s10.3-4.3,9.4-9.4l-2-11.4Z"/>
    <path class="cls-4" d="M18,136.9l2.1,11.6a5.4,5.4,0,0,1-.2,2.7c-1.1,3.2-4.7,5.2-8,5.2l-1.7-.2c-3.5-.7-7.1-3.8-6.4-7.7l2.1-11.6Z"/>
    <path class="cls-5" d="M12,156.4l-1.7-.2c-3.5-.7-7.1-3.8-6.4-7.7l2.1-11.6H12v19.5Z"/>
    <path class="cls-2" d="M12,128.3a7.9,7.9,0,1,1-7.9,7.9,7.9,7.9,0,0,1,7.9-7.9Z"/>
    <path class="cls-3" d="M12,129.7a6.5,6.5,0,1,1-6.5,6.5,6.5,6.5,0,0,1,6.5-6.5Z"/>
    <path class="cls-5" d="M12,131a5.2,5.2,0,1,1-5.2,5.2A5.2,5.2,0,0,1,12,131Z"/>
    <path class="cls-4" d="M12,132.3A3.9,3.9,0,1,1,8,136.2a3.9,3.9,0,0,1,3.9-3.9Z"/>
    <path class="cls-3" d="M12,133.6a2.6,2.6,0,1,1-2.6,2.6,2.6,2.6,0,0,1,2.6-2.6Z"/>
    <path class="cls-6" d="M12,134.9a1.3,1.3,0,1,1-1.3,1.3,1.3,1.3,0,0,1,1.3-1.3Z"/>
    <path class="cls-1" d="M12,144.1c4.9,6.2-4.9,6.2,0,0Z"/>
    <path class="cls-1" d="M14.6,148.2c3.6,4.5-3.6,4.5,0,0Z"/>
    <path class="cls-2" d="M12,168.5a8.5,8.5,0,0,1,5.7,2.2H6.2a8.5,8.5,0,0,1,5.7-2.2Z"/>
    <polygon class="cls-7" points="250 50.2 201 50.2 201 74.2 250 74.2 250 50.2 250 50.2"/>
    <polygon class="cls-3" points="75.4 75.4 124.4 75.4 124.4 124.4 75.4 124.4 75.4 75.4 75.4 75.4"/>
    <path class="cls-1" d="M99.9,79.6A20.3,20.3,0,1,1,79.6,99.9,20.3,20.3,0,0,1,99.9,79.6Z"/>
    <path class="cls-8" d="M99.9,87.4A12.5,12.5,0,1,1,87.4,99.9,12.5,12.5,0,0,1,99.9,87.4Z"/>
    <polygon class="cls-9" points="75.4 93.4 124.4 93.4 124.4 106.3 75.4 106.3 75.4 93.4 75.4 93.4"/>
    <path class="cls-9" d="M119.1,93.4a20.3,20.3,0,0,1,0,12.9H80.7a20.4,20.4,0,0,1,0-12.9Z"/>
    <path class="cls-10" d="M99.9,83A16.9,16.9,0,1,1,83,99.9,16.9,16.9,0,0,1,99.9,83Zm0,.6A16.3,16.3,0,1,1,83.6,99.9,16.3,16.3,0,0,1,99.9,83.6Z"/>
    <path class="cls-9" d="M89.9,98.5l3.2,3.2h0a.4.4,0,0,0,.5,0h0l3-3,3,3h0a.4.4,0,0,0,.5,0h0l3-3,3,3h0a.4.4,0,0,0,.5,0h0l3.2-3.2a.4.4,0,0,0,0-.5h0a.4.4,0,0,0-.5,0l-3,3-3-3h-.5l-3,3-3-3h0a.4.4,0,0,0-.5,0h0l-3,3-3-3a.4.4,0,0,0-.5,0h0a.4.4,0,0,0,0,.5Z"/>
    <path class="cls-9" d="M79.2,77.7a1.5,1.5,0,1,1-1.5,1.5,1.5,1.5,0,0,1,1.5-1.5Z"/>
    <path class="cls-9" d="M120.5,77.7a1.5,1.5,0,1,1-1.5,1.5,1.5,1.5,0,0,1,1.5-1.5Z"/>
    <path class="cls-9" d="M120.5,119.1a1.5,1.5,0,1,1-1.5,1.5,1.5,1.5,0,0,1,1.5-1.5Z"/>
    <path class="cls-9" d="M79.2,119.1a1.5,1.5,0,1,1-1.5,1.5,1.5,1.5,0,0,1,1.5-1.5Z"/>
    <polygon class="cls-8" points="150.7 75.4 199.8 75.4 199.8 124.4 150.7 124.4 150.7 75.4 150.7 75.4"/>
    <polygon class="cls-2" points="150.7 75.4 167.6 75.4 167.6 92.2 150.7 92.2 150.7 75.4 150.7 75.4"/>
    <polygon class="cls-9" points="199.8 75.4 167.6 75.4 167.6 92.2 199.8 92.2 199.8 75.4 199.8 75.4"/>
    <path class="cls-1" d="M183.9,108.6a15.8,15.8,0,0,1,15.8,15.8H168.1a15.8,15.8,0,0,1,15.8-15.8Z"/>
    <path class="cls-11" d="M183.9,119a5.4,5.4,0,0,1,5.4,5.4H178.6a5.4,5.4,0,0,1,5.4-5.4Z"/>
    <path class="cls-9" d="M183.9,123.7a.7.7,0,0,1,.7.7h-1.5a.7.7,0,0,1,.7-.7Z"/>
    <path class="cls-3" d="M167.6,75.4h14.2a18,18,0,0,1,17.9,17.9v13.2a7.6,7.6,0,0,1-7.6,7.6h-18v-2.9h18a4.7,4.7,0,1,0,0-9.4H163.9l3.7-26.4Z"/>
    <path class="cls-4" d="M167.6,75.4a16.9,16.9,0,1,1-16.9,16.9,16.9,16.9,0,0,1,16.9-16.9Z"/>
    <path class="cls-1" d="M167.6,77.5a14.7,14.7,0,1,1-14.7,14.7,14.7,14.7,0,0,1,14.7-14.7Z"/>
    <path class="cls-12" d="M164.6,85.2l2.4,4.9h1.3l2.4-4.9c3.5-7.1-9.5-7.1-6,0Z"/>
    <path class="cls-12" d="M167.6,89.2a.7.7,0,1,0,.7.7.7.7,0,0,0-.7-.7Z"/>
    <path class="cls-6" d="M172.2,86.1l-3,4.5.6,1.1,5.4-.4c7.9-.5,1.4-11.7-3-5.2Z"/>
    <path class="cls-6" d="M170.3,90.7a.7.7,0,1,0-.2.9.7.7,0,0,0,.2-.9Z"/>
    <path class="cls-12" d="M175.2,93.1l-5.4-.4-.6,1.1,3,4.5c4.4,6.5,10.9-4.7,3-5.2Z"/>
    <path class="cls-12" d="M170.3,93.8a.7.7,0,0,0-1.2-.7.7.7,0,1,0,1.2.7Z"/>
    <path class="cls-6" d="M170.6,99.3l-2.4-4.9H167l-2.4,4.9c-3.5,7.1,9.5,7.1,6,0Z"/>
    <path class="cls-6" d="M167.6,95.3a.7.7,0,1,0-.7-.7.7.7,0,0,0,.7.7Z"/>
    <path class="cls-12" d="M163,98.3l3-4.5-.6-1.1-5.4.4c-7.9.5-1.4,11.7,3,5.2Z"/>
    <path class="cls-12" d="M164.9,93.8a.7.7,0,1,0,.2-.9.7.7,0,0,0-.2.9Z"/>
    <path class="cls-6" d="M160,91.3l5.4.4.6-1.1-3-4.5c-4.4-6.5-10.9,4.7-3,5.2Z"/>
    <path class="cls-6" d="M164.9,90.7a.7.7,0,1,0,.9-.2.7.7,0,0,0-.9.2Z"/>
    <polygon class="cls-9" points="177.4 120.2 175.9 116.1 179 116.1 177.4 120.2 177.4 120.2"/>
    <path class="cls-9" d="M177.4,108.3a4.3,4.3,0,1,1-4.3,4.3,4.3,4.3,0,0,1,4.3-4.3Z"/>
    <path class="cls-8" d="M177.4,110.7a2,2,0,1,1-2,2,2,2,0,0,1,2-2Z"/>
    <polygon class="cls-8" points="175.8 125.6 224.9 125.6 224.9 174.6 175.8 174.6 175.8 125.6 175.8 125.6"/>
    <path class="cls-1" d="M182.7,168.4V158.1a3.1,3.1,0,0,1,3.1-3.1h0a3.1,3.1,0,0,1,3.1,3.1v10.3a3.1,3.1,0,0,1-3.1,3.1h0a3.1,3.1,0,0,1-3.1-3.1Z"/>
    <path class="cls-1" d="M189.9,168.4V158.1a3.1,3.1,0,0,1,3.1-3.1h0a3.1,3.1,0,0,1,3.1,3.1v10.3a3.1,3.1,0,0,1-3.1,3.1h0a3.1,3.1,0,0,1-3.1-3.1Z"/>
    <path class="cls-1" d="M197.2,168.4V158.1a3.1,3.1,0,0,1,3.1-3.1h0a3.1,3.1,0,0,1,3.1,3.1v10.3a3.1,3.1,0,0,1-3.1,3.1h0a3.1,3.1,0,0,1-3.1-3.1Z"/>
    <path class="cls-1" d="M204.5,168.4V158.1a3.1,3.1,0,0,1,3.1-3.1h0a3.2,3.2,0,0,1,3.1,3.1v10.3a3.2,3.2,0,0,1-3.1,3.1h0a3.1,3.1,0,0,1-3.1-3.1Z"/>
    <path class="cls-1" d="M211.8,168.4V158.1a3.2,3.2,0,0,1,3.1-3.1h0a3.1,3.1,0,0,1,3.1,3.1v10.3a3.1,3.1,0,0,1-3.1,3.1h0a3.2,3.2,0,0,1-3.1-3.1Z"/>
    <path class="cls-10" d="M187.2,163.5v-5.9a2.3,2.3,0,0,1,2.2-2.2h0a2.3,2.3,0,0,1,2.2,2.2v5.9a2.3,2.3,0,0,1-2.2,2.2h0a2.3,2.3,0,0,1-2.2-2.2Z"/>
    <path class="cls-10" d="M194.5,163.5v-5.9a2.3,2.3,0,0,1,2.2-2.2h0a2.3,2.3,0,0,1,2.2,2.2v5.9a2.3,2.3,0,0,1-2.2,2.2h0a2.3,2.3,0,0,1-2.2-2.2Z"/>
    <path class="cls-10" d="M209,163.5v-5.9a2.3,2.3,0,0,1,2.2-2.2h0a2.3,2.3,0,0,1,2.2,2.2v5.9a2.3,2.3,0,0,1-2.2,2.2h0a2.3,2.3,0,0,1-2.2-2.2Z"/>
    <path class="cls-10" d="M201.7,163.5v-5.9a2.3,2.3,0,0,1,2.2-2.2h0a2.3,2.3,0,0,1,2.2,2.2v5.9a2.3,2.3,0,0,1-2.2,2.2h0a2.3,2.3,0,0,1-2.2-2.2Z"/>
    <path class="cls-13" d="M186,131.5a1.5,1.5,0,0,1,.1-.6l.3-.5.5-.3h2.9v1h-2.7v.7h2l.5.3.3.5a1.6,1.6,0,0,1,0,1.2l-.3.5-.5.3h-2.9v-1h2.6v-.7h-2l-.5-.3-.3-.5a1.5,1.5,0,0,1-.1-.6Zm5.8-.5v2h1.4l.3-.2.2-.3a1,1,0,0,0,0-.8l-.2-.3-.3-.2h-1.4Zm0,4.1h-1V130h2.6l.5.2.4.3.3.4.2.5a2,2,0,0,1,.1.5,2,2,0,0,1-.2.8l-.4.6-.7.4-.8.2h-1v1Zm7.2,0h-3.5V130H199v1h-2.5v1h1.7v1h-1.7v1H199v1Zm4.7-.5-.8.5-.9.2h-.7l-.6-.3-.5-.4-.4-.5-.3-.6a2.7,2.7,0,0,1,0-1.4l.3-.6.4-.5.5-.4.6-.3h.7l.9.2.8.5-.5.9-.5-.4h-1.3l-.5.3-.3.5a1.6,1.6,0,0,0-.1.6,1.5,1.5,0,0,0,.1.6l.3.5.5.4h1.3l.5-.4.5.9Zm1.6.5h-1V130h1v5.1Zm4-2v-1a1,1,0,0,0-.1-.4l-.2-.3-.3-.2h-.8l-.3.2-.2.3a1,1,0,0,0-.1.4v1Zm1,2h-1v-1h-2v1h-1v-3.1a2,2,0,0,1,.2-.8l.4-.7.6-.4.8-.2.8.2.6.4.4.7a2,2,0,0,1,.2.8v3.1Zm4.5,0h-3.6V130h1v4.1h2.6v1Zm-21.1,7.1-.8.5-.9.2h-.7l-.6-.3-.5-.4-.4-.5-.3-.6a2.6,2.6,0,0,1-.1-.7,2.5,2.5,0,0,1,.1-.7l.3-.6.4-.5.5-.4.6-.3h.7l.9.2.8.5-.5.9-.5-.4h-1.3l-.5.3-.4.5a1.5,1.5,0,0,0-.1.6,1.6,1.6,0,0,0,.1.6l.4.5.5.3h1.3v-1.5h1v2Zm4.8-1.5a2,2,0,0,1-.2.8l-.4.6-.7.4-.8.2-.8-.2-.6-.4-.4-.6a2,2,0,0,1-.2-.8v-3.1h1v3.1a1,1,0,0,0,.1.4l.2.3.3.2h.8l.3-.2.2-.3a1,1,0,0,0,.1-.4v-3.1h1v3.1Zm4.4,2h-3.5v-5.1h3.5v1h-2.5v1H202v1h-1.7v1h2.5v1Zm.4-3.6a1.5,1.5,0,0,1,.1-.6l.3-.5.5-.3H207v1h-2.7v.7h2l.5.3.3.5a1.6,1.6,0,0,1,0,1.2l-.3.5-.5.3h-2.9v-1h2.6v-.7h-2l-.5-.3-.3-.5a1.5,1.5,0,0,1-.1-.6Zm6.8,3.6h-1v-4.1h-1.5v-1h4.1v1H210v4.1Zm-20.8,4a1.5,1.5,0,0,1,.1-.6l.3-.5.5-.3h2.9v1h-2.7v.7h2l.5.3.3.5a1.5,1.5,0,0,1,0,1.2l-.3.5-.5.3h-2.9v-1h2.6v-.7h-2l-.5-.3-.3-.5a1.5,1.5,0,0,1-.1-.6Zm6.8,3.6h-1v-4.1h-1.5v-1h4.1v1H196v4.1Zm4.9-2v-1a1,1,0,0,0-.1-.4l-.2-.3-.3-.2h-.8l-.3.2-.2.3a.9.9,0,0,0-.1.4v1Zm1,2h-1v-1h-2v1h-1v-3.1a2,2,0,0,1,.2-.8l.4-.7.6-.4.8-.2.8.2.6.4.4.7a2,2,0,0,1,.2.8v3.1Zm1.9-4.1v2h1.4l.3-.2.2-.3a1,1,0,0,0,0-.8l-.2-.3-.3-.2h-1.4Zm0,4.1h-1v-5.1h2.6l.5.2.4.3.3.4.2.5a2,2,0,0,1,.1.5,2.1,2.1,0,0,1-.1.5l-.2.5-.3.4-.4.3.6,1.3h-1.1l-.4-1h-1.1v1Zm3.4-3.6a1.5,1.5,0,0,1,.1-.6l.3-.5.5-.3h2.9v1h-2.7v.7h2l.5.3.3.5a1.5,1.5,0,0,1,0,1.2l-.3.5-.5.3h-2.9v-1h2.6v-.7h-2l-.5-.3-.3-.5a1.5,1.5,0,0,1-.1-.6Z"/>
    <polygon class="cls-14" points="74.2 226.1 25.1 226.1 25.1 275.1 74.2 275.1 74.2 226.1 74.2 226.1"/>
    <polygon class="cls-15" points="175.8 175.8 199.8 175.8 199.8 224.9 175.8 224.9 175.8 175.8 175.8 175.8"/>
    <polygon class="cls-5" points="224.9 276.3 201 276.3 201 350.5 224.9 350.5 224.9 276.3 224.9 276.3"/>
    <path class="cls-5" d="M201,277h.9a9,9,0,0,1,6.7,3,7.5,7.5,0,0,1,5,7.1,7.5,7.5,0,0,0,0,2.8,7.5,7.5,0,0,0,0,2.8,7.5,7.5,0,0,1-2.8,5.8v6.4a11.2,11.2,0,0,1,5,17,17.5,17.5,0,0,1-14,28.1H201V277Z"/>
    <path class="cls-16" d="M201,280.8h.9a5.2,5.2,0,0,1,4.5,2.6,6.7,6.7,0,0,1,3.2,7.8,3.7,3.7,0,0,1-2.5,4.9v11.7a7.3,7.3,0,0,1,3.3,13.8,13.7,13.7,0,0,1-8.5,24.4H201V280.8Z"/>
    <path class="cls-2" d="M204.4,311.5h-1V285.9a1.5,1.5,0,0,0-1.5-1.5h0a1.5,1.5,0,0,0-.9.3v57.6h.9a10,10,0,0,0,4.8-18.8,2.5,2.5,0,0,1,.8-4.7,3.7,3.7,0,0,0-.6-7.3Z"/>
    <polygon class="cls-4" points="203.4 286.8 205.6 286.8 205.6 287.3 203.4 287.3 203.4 286.8 203.4 286.8"/>
    <path class="cls-2" d="M206.1,286.1a1,1,0,1,1-1,1,1,1,0,0,1,1-1Z"/>
    <polygon class="cls-4" points="203.4 289.5 205.6 289.5 205.6 290.1 203.4 290.1 203.4 289.5 203.4 289.5"/>
    <path class="cls-2" d="M206.1,288.8a1,1,0,1,1-1,1,1,1,0,0,1,1-1Z"/>
    <polygon class="cls-4" points="203.4 292.3 205.6 292.3 205.6 292.9 203.4 292.9 203.4 292.3 203.4 292.3"/>
    <path class="cls-2" d="M206.1,291.6a1,1,0,1,1-1,1,1,1,0,0,1,1-1Z"/>
    <path class="cls-4" d="M201.9,328.1a4.6,4.6,0,1,1,0,9.3H201v-9.1Z"/>
    <path class="cls-1" d="M201.9,330.2a2.5,2.5,0,1,1,0,5l-.9-.2v-4.7l.9-.2Z"/>
    <path class="cls-4" d="M201.9,343.4H201v-1h.9a10,10,0,0,0,4.8-18.8,2.5,2.5,0,0,1,.8-4.7,3.7,3.7,0,0,0-.6-7.3h-3.5v-1h3.5a4.7,4.7,0,0,1,.8,9.3,1.5,1.5,0,0,0-.4,2.8,11,11,0,0,1-5.3,20.7Z"/>
    <path class="cls-4" d="M201.9,283.4a2.5,2.5,0,0,1,2.5,2.5v25.6h-1V285.9a1.5,1.5,0,0,0-1.5-1.5h0a1.5,1.5,0,0,0-.9.3v-1.1l.9-.2Z"/>
    <path class="cls-10" d="M209,279.5a8.1,8.1,0,0,1,5.3,7.6,8.2,8.2,0,0,0,0,2.8,8.2,8.2,0,0,0,0,2.8,8.1,8.1,0,0,1-2.8,6.1v5.7a11.8,11.8,0,0,1,5.1,17.4,18.1,18.1,0,0,1-14.7,28.7H201v-.6h.9a17.5,17.5,0,0,0,14-28.1,11.2,11.2,0,0,0-5-17v-6.4a7.5,7.5,0,0,0,2.8-5.8,7.5,7.5,0,0,1,0-2.8,7.5,7.5,0,0,1,0-2.8,7.5,7.5,0,0,0-5-7.1,9,9,0,0,0-6.7-3H201v-.6h.9a9.6,9.6,0,0,1,7.1,3.1Z"/>
    <path class="cls-4" d="M211.2,321.7a14.2,14.2,0,0,1-9.3,24.9H201V346h.9a13.7,13.7,0,0,0,8.5-24.4,7.3,7.3,0,0,0-3.3-13.8V296.1a7.1,7.1,0,0,0,2.5-7.7,3.7,3.7,0,0,0-3.2-5,5.2,5.2,0,0,0-4.5-2.6H201v-.5h.9a5.7,5.7,0,0,1,4.8,2.7,7.3,7.3,0,0,1,3.4,8.3,4.1,4.1,0,0,1-2.5,5.3v10.9a7.8,7.8,0,0,1,3.7,14.3Z"/>
    <polygon class="cls-12" points="50.2 125.6 99.3 125.6 99.3 174.6 50.2 174.6 50.2 125.6 50.2 125.6"/>
    <polygon class="cls-8" points="50.2 171.1 50.2 152.9 65.2 138 75.8 145.6 50.2 171.1 50.2 171.1"/>
    <polygon class="cls-3" points="55.2 174.6 50.2 174.6 50.2 171.1 77 144.4 81.2 148.7 55.2 174.6 55.2 174.6"/>
    <polygon class="cls-5" points="76.1 174.6 55.1 174.6 82.2 147.5 92.8 158 76.1 174.6 76.1 174.6"/>
    <polygon class="cls-9" points="57.9 174.6 55.1 174.6 82.2 147.5 83.7 148.9 57.9 174.6 57.9 174.6"/>
    <polygon class="cls-4" points="82.2 125.6 78.2 138 65.2 138 75.8 145.6 71.7 158 82.2 150.3 92.8 158 88.7 145.6 99.3 138 86.2 138 82.2 125.6 82.2 125.6"/>
    <polygon class="cls-17" points="100.5 175.8 124.4 175.8 124.4 250 100.5 250 100.5 175.8 100.5 175.8"/>
    <path class="cls-18" d="M114.5,213.2l7,27.3a2.1,2.1,0,0,1-3.6,1.9c-1.5-1.8-2.8-3.7-4.1-5.6a1.7,1.7,0,0,0-1.4-.7,1.8,1.8,0,0,0-1.6,1c-1.3,1.8-2.5,3.6-3.9,5.3a2.1,2.1,0,0,1-3.6-1.9l7-27.3a.6.6,0,0,1,.7-.4v2.5l-6.6,25.6a.9.9,0,0,0,1.6.9c1.4-1.7,2.6-3.5,3.9-5.2a2.9,2.9,0,0,1,2.6-1.5,2.9,2.9,0,0,1,2.4,1.2c1.3,1.9,2.6,3.7,4,5.5a.9.9,0,0,0,1.6-.9l-6.6-25.6v-2.4a.6.6,0,0,1,.7.4Z"/>
    <path class="cls-10" d="M114.1,185.7a.6.6,0,1,1-.8.1.6.6,0,0,1,.8-.1Z"/>
    <path class="cls-10" d="M112.8,187.5a.6.6,0,1,1-.8.1.6.6,0,0,1,.8-.1Z"/>
    <path class="cls-10" d="M111.4,189.4a.6.6,0,1,1-.8.1.6.6,0,0,1,.8-.1Z"/>
    <path class="cls-5" d="M116.3,184.7l-1.2-.7a21.1,21.1,0,0,0-6.8,7.3,4.5,4.5,0,0,1,3.1,4.3v30.2a.6.6,0,0,1-1.2,0V195.5a3.4,3.4,0,0,0-2.9-3.3.6.6,0,0,1-.4-.8,22.2,22.2,0,0,1,7.8-8.6.6.6,0,0,1,.6,0l2,1.2a.6.6,0,0,1,.2.8,21.1,21.1,0,0,0-3,10.8v30.2a.6.6,0,0,1-1.2,0V195.6a22.3,22.3,0,0,1,2.8-10.9Z"/>
    <path class="cls-12" d="M110.9,228.5h2.8a1.6,1.6,0,0,1,1.6,1.6h0a1.6,1.6,0,0,1-1.6,1.6h-2.8a1.6,1.6,0,0,1-1.6-1.6h0a1.6,1.6,0,0,1,1.6-1.6Zm0,.9a.7.7,0,0,0,0,1.4h2.8a.7.7,0,0,0,0-1.4Z"/>
    <path class="cls-5" d="M114.6,225.8h0a.6.6,0,0,0-.6-.6h-3.2a.6.6,0,0,0-.6.6h0a.6.6,0,0,0,.6.6H114a.6.6,0,0,0,.6-.6Z"/>
    <path class="cls-12" d="M116.5,196.8h0a.6.6,0,0,0-.6-.5h-3a.6.6,0,0,0-.5.5h0a.6.6,0,0,0,.5.6h3a.6.6,0,0,0,.6-.6Z"/>
    <path class="cls-12" d="M116.5,199.6h0a.6.6,0,0,0-.6-.6h-3a.6.6,0,0,0-.5.6h0a.6.6,0,0,0,.5.6h3a.6.6,0,0,0,.6-.6Z"/>
    <path class="cls-12" d="M116.5,202.3h0a.6.6,0,0,0-.6-.5h-3a.6.6,0,0,0-.5.5h0a.6.6,0,0,0,.5.6h3a.6.6,0,0,0,.6-.6Z"/>
    <path class="cls-12" d="M116.5,205.1h0a.6.6,0,0,0-.6-.6h-3a.6.6,0,0,0-.5.6h0a.6.6,0,0,0,.5.6h3a.6.6,0,0,0,.6-.6Z"/>
    <path class="cls-12" d="M116.5,207.8h0a.6.6,0,0,0-.6-.6h-3a.6.6,0,0,0-.5.6h0a.6.6,0,0,0,.5.5h3a.6.6,0,0,0,.6-.5Z"/>
    <polygon class="cls-8" points="0 276.3 49 276.3 49 300.2 0 300.2 0 276.3 0 276.3"/>
    <path class="cls-12" d="M36.4,298.1H12.7A3.7,3.7,0,0,1,9,294.4V282.1a3.7,3.7,0,0,1,3.7-3.7H36.4a3.7,3.7,0,0,1,3.7,3.7v12.3a3.7,3.7,0,0,1-3.7,3.7Z"/>
    <path class="cls-3" d="M36.4,298.1H12.1a5.1,5.1,0,0,1,5.1-4.2H30.9a6.4,6.4,0,0,1,6,4.3Z"/>
    <path class="cls-12" d="M36.4,292.4H12.7a1.8,1.8,0,0,1-1.8-1.8v-8.5a1.8,1.8,0,0,1,1.8-1.8H36.4a1.8,1.8,0,0,1,1.8,1.8v8.5a1.8,1.8,0,0,1-1.8,1.8Z"/>
    <path class="cls-3" d="M30.9,284.7H18.1a2.6,2.6,0,0,0-2.6,2.6h0a2.6,2.6,0,0,0,2.6,2.6H30.9a2.6,2.6,0,0,0,2.6-2.6h0a2.6,2.6,0,0,0-2.6-2.6Z"/>
    <path class="cls-10" d="M18.1,285.5a1.8,1.8,0,1,0,1.8,1.8,1.8,1.8,0,0,0-1.8-1.8Z"/>
    <path class="cls-10" d="M30.9,285.5a1.8,1.8,0,1,0,1.8,1.8,1.8,1.8,0,0,0-1.8-1.8Z"/>
    <path class="cls-10" d="M26.6,285.5H22.4a1.1,1.1,0,0,0-1.1,1.1v1.5a1.1,1.1,0,0,0,1.1,1.1h4.2a1.1,1.1,0,0,0,1.1-1.1v-1.5a1.1,1.1,0,0,0-1.1-1.1Z"/>
    <path class="cls-9" d="M26.6,285.5h-.7a5.3,5.3,0,0,0,0,3.6h.7a1.1,1.1,0,0,0,1.1-1.1v-1.5a1.1,1.1,0,0,0-1.1-1.1Z"/>
    <path class="cls-9" d="M23.1,285.5h-.7a1.1,1.1,0,0,0-1.1,1.1v1.5a1.1,1.1,0,0,0,1.1,1.1h.7a5.4,5.4,0,0,0,0-3.6Z"/>
    <path class="cls-3" d="M36.6,281.3a.6.6,0,1,0,.7.6.6.6,0,0,0-.7-.6Z"/>
    <path class="cls-3" d="M12.5,281.2a.7.7,0,1,0,.7.7.7.7,0,0,0-.7-.7Z"/>
    <path class="cls-10" d="M11.3,294.7a.7.7,0,1,0,.7.7.7.7,0,0,0-.7-.7Z"/>
    <path class="cls-10" d="M37.7,294.7a.7.7,0,1,0,.7.7.7.7,0,0,0-.7-.7Z"/>
    <path class="cls-10" d="M46.9,277.4a.8.8,0,1,0,.8.8.8.8,0,0,0-.8-.8Z"/>
    <path class="cls-10" d="M46.9,297.5a.8.8,0,1,0,.8.8.8.8,0,0,0-.8-.8Z"/>
    <path class="cls-10" d="M2.1,277.4a.8.8,0,1,0,.8.8.8.8,0,0,0-.8-.8Z"/>
    <path class="cls-10" d="M2.1,297.5a.8.8,0,1,0,.8.8.8.8,0,0,0-.8-.8Z"/>
    <polygon class="cls-19" points="50.2 276.3 74.2 276.3 74.2 300.2 50.2 300.2 50.2 276.3 50.2 276.3"/>
    <path class="cls-4" d="M63.6,283.4a10.6,10.6,0,0,0,1.1-2.7,2.1,2.1,0,0,0-.7-1.6,2.6,2.6,0,0,0-1.8-.6,2.5,2.5,0,0,0-1.8.6,2.2,2.2,0,0,0-.7,1.7,10.6,10.6,0,0,0,1,2.7c.7,1.4,2.5,6-.6,2.9a10.4,10.4,0,0,1-1.6-1.9l-.3-.4c-.9-1.3-1.7-2-2.7-2a2.2,2.2,0,0,0-1.6.8,2.7,2.7,0,0,0-.7,1.8,2.2,2.2,0,0,0,.7,1.6,2.3,2.3,0,0,0,1.6.7,15.7,15.7,0,0,1,3.3.3c2.5.5,3.5,1.1.4,1.9a10.8,10.8,0,0,1-2.6.3,4.3,4.3,0,0,0-2.5.6,2,2,0,0,0-.9,1.8,2.6,2.6,0,0,0,.8,1.8,2.2,2.2,0,0,0,1.7.8q1.2,0,2.6-2.1l.2-.3a11.5,11.5,0,0,1,1.5-1.9c3.1-3,1.3,1.5.6,2.9a10.5,10.5,0,0,0-1.1,2.7,2.1,2.1,0,0,0,.7,1.7,2.7,2.7,0,0,0,1.8.6,2.6,2.6,0,0,0,1.8-.6,2.1,2.1,0,0,0,.7-1.7,10.1,10.1,0,0,0-1-2.7c-.7-1.4-2.5-5.9.6-2.9a9.4,9.4,0,0,1,1.5,1.9l.3.5c.9,1.3,1.7,2,2.6,2a2.2,2.2,0,0,0,1.6-.8,2.7,2.7,0,0,0,.7-1.8,2.2,2.2,0,0,0-.7-1.6,2.3,2.3,0,0,0-1.6-.7,15.7,15.7,0,0,1-3.3-.3c-2.6-.6-3.4-1.1-.3-1.9a10,10,0,0,1,2.6-.3,4.4,4.4,0,0,0,2.5-.6,2,2,0,0,0,.9-1.7,2.6,2.6,0,0,0-.8-1.9,2.3,2.3,0,0,0-1.7-.8q-1.3,0-2.7,2.1l-.2.3a11.9,11.9,0,0,1-1.6,2c-3,3.1-1.3-1.6-.6-3Z"/>
    <polygon class="cls-20" points="174.6 150.7 125.6 150.7 125.6 199.8 174.6 199.8 174.6 150.7 174.6 150.7"/>
    <polygon class="cls-21" points="125.6 201 174.6 201 174.6 224.9 125.6 224.9 125.6 201 125.6 201"/>
    <polygon class="cls-22" points="74.2 201 25.1 201 25.1 224.9 74.2 224.9 74.2 201 74.2 201"/>
    <polygon class="cls-23" points="100.5 125.6 124.4 125.6 124.4 174.6 100.5 174.6 100.5 125.6 100.5 125.6"/>
    <polygon class="cls-24" points="250 201 250 224.9 201 224.9 201 201 250 201 250 201"/>
    <polygon class="cls-25" points="125.6 226.1 149.5 226.1 149.5 275.1 125.6 275.1 125.6 226.1 125.6 226.1"/>
    <polygon class="cls-3" points="25.1 125.6 49 125.6 49 174.6 25.1 174.6 25.1 125.6 25.1 125.6"/>
    <polygon class="cls-8" points="0 201 23.9 201 23.9 250 0 250 0 201 0 201"/>
    <polygon class="cls-4" points="0 251.2 23.9 251.2 23.9 275.1 0 275.1 0 251.2 0 251.2"/>
    <path class="cls-4" d="M4.8,244.2V211a7.2,7.2,0,0,1,7.1-7.1h0a7.2,7.2,0,0,1,7.1,7.1v33.3Z"/>
    <path class="cls-12" d="M4.8,212.3v-.2l2,.2a12.4,12.4,0,0,0,10.6-6h.1a12.6,12.6,0,0,1-10.7,6l-2-.2Zm0-.8v-.2l2,.2a11.6,11.6,0,0,0,10.1-5.8H17a11.8,11.8,0,0,1-10.2,5.8l-2-.2Zm0-.8v-.2l2,.2a10.8,10.8,0,0,0,9.4-5.5h.1a11,11,0,0,1-9.6,5.6l-2-.2Zm.1-.8v-.2l1.9.2a10,10,0,0,0,8.8-5.2h.1a10.2,10.2,0,0,1-8.9,5.2L4.9,210Zm.2-.8V209l1.7.2a9.3,9.3,0,0,0,8.1-4.7H15a9.4,9.4,0,0,1-8.2,4.8L5,209.2Zm.2-.8H6.8a8.5,8.5,0,0,0,7.3-4.2h.2a8.6,8.6,0,0,1-7.5,4.3Zm.3-.7H6.8a7.7,7.7,0,0,0,6.5-3.6h.2a7.8,7.8,0,0,1-6.7,3.8Zm.4-.7h.7a6.9,6.9,0,0,0,5.7-3h.2A7,7,0,0,1,6.8,207Zm.6-.8V206a6.1,6.1,0,0,0,4.7-2.2h.2a6.2,6.2,0,0,1-4.9,2.4Zm.9-.8.3-.2a5.3,5.3,0,0,0,2.3-1.1h.3a5.4,5.4,0,0,1-2.9,1.4Z"/>
    <path class="cls-1" d="M11.9,216.5a5.6,5.6,0,0,1-5.4-4h.2a12.6,12.6,0,0,0,9.8-4.7,5.6,5.6,0,0,1-4.7,8.7Z"/>
    <polygon class="cls-1" points="14.6 214.6 9.4 214.6 9.4 226.3 14.6 226.3 14.6 214.6 14.6 214.6"/>
    <path class="cls-6" d="M12,213.7a1,1,0,1,0,1,1,1,1,0,0,0-1-1Z"/>
    <path class="cls-12" d="M0,250H23.9l-9.3-24.5a4.2,4.2,0,0,1-5.3,0L0,250Z"/>
    <path class="cls-5" d="M12,226.4V250H0l9.3-24.5a4.2,4.2,0,0,0,2.6.9Z"/>
    <path class="cls-10" d="M12,225.6a.8.8,0,1,1-.8.8.8.8,0,0,1,.8-.8Z"/>
    <path class="cls-10" d="M13.3,225.4a.8.8,0,1,1-.5,1,.8.8,0,0,1,.5-1Z"/>
    <path class="cls-10" d="M14.4,224.8a.8.8,0,1,1-.2,1.1.8.8,0,0,1,.2-1.1Z"/>
    <path class="cls-10" d="M9.5,224.8a.8.8,0,1,1-1.1.2.8.8,0,0,1,1.1-.2Z"/>
    <path class="cls-10" d="M10.7,225.4a.8.8,0,1,1-1,.5.8.8,0,0,1,1-.5Z"/>
    <path class="cls-4" d="M12,230.9a1.5,1.5,0,1,1-1.5,1.5,1.5,1.5,0,0,1,1.5-1.5Z"/>
    <path class="cls-4" d="M12,236.2a1.5,1.5,0,1,1-1.5,1.5,1.5,1.5,0,0,1,1.5-1.5Z"/>
    <path class="cls-4" d="M12,241.6a1.5,1.5,0,1,1-1.5,1.5,1.5,1.5,0,0,1,1.5-1.5Z"/>
    <polygon class="cls-5" points="118.7 174.6 104.8 174.6 104.8 143.9 118.7 143.9 118.7 174.6 118.7 174.6"/>
    <path class="cls-4" d="M117.8,174.6h-1.1l-12-12v-1.1l13.1,13.1Zm-2.6,0h-1.1l-9.4-9.4v-1.1l10.4,10.4Zm-2.6,0h-1.1l-6.7-6.7v-1.1l7.8,7.8Zm-2.6,0h-1.1l-4.1-4.1v-1.1l5.2,5.2Zm-2.6,0h-1.1l-1.5-1.5V172l2.6,2.6Zm-2.6-14.6V159l14,14V174l-14-14Zm0-2.6v-1.1l14,14v1.1l-14-14Zm0-2.6v-1.1l14,14v1.1l-14-14Zm0-2.6v-1.1l14,14v1.1l-14-14Zm0-2.6v-1.1l14,14v1.1l-14-14Zm0-2.6v-1.1l14,14v1.1l-14-14Zm0-2.6v-.4h.6l13.3,13.3v1.1l-14-14Zm2.2-.4H108l10.7,10.7v1.1L107,143.9Zm2.6,0h1.1l8.1,8.1v1.1l-9.2-9.2Zm2.6,0h1.1l5.5,5.5v1.1l-6.6-6.6Zm2.6,0h1.1l2.9,2.9v1.1l-4-4Zm2.6,0h1.1l.2.3v1.1l-1.3-1.3Z"/>
    <path class="cls-3" d="M117.7,158.1V138.9h-7.1v19.2h-8.2V138.4a10.1,10.1,0,0,1,10.1-10.1h0a10.1,10.1,0,0,1,10.1,10.1v19.7Z"/>
    <path class="cls-9" d="M112.7,134.6h-5.3A2.4,2.4,0,0,0,105,137h7.7v-2.4Z"/>
    <path class="cls-6" d="M120.5,135.6H107.6a1.4,1.4,0,0,0-1.4,1.4h0a1.4,1.4,0,0,0,1.4,1.4h12.9a1.4,1.4,0,0,0,1.4-1.4h0a1.4,1.4,0,0,0-1.4-1.4Z"/>
    <path class="cls-6" d="M108.6,135.6a6,6,0,0,0,1.9,6.9V145a3.6,3.6,0,0,0,3.6,3.6h0a3.6,3.6,0,0,0,3.6-3.6v-2.5a5.9,5.9,0,0,0,1.9-6.9Z"/>
    <polygon class="cls-9" points="117.5 134.6 112.7 134.6 112.7 135.6 117.5 135.6 117.5 134.6 117.5 134.6"/>
    <path class="cls-8" d="M117.7,133.9a2.4,2.4,0,1,0,2.4,2.4,2.4,2.4,0,0,0-2.4-2.4Z"/>
    <path class="cls-8" d="M112.2,133.9a2.4,2.4,0,1,0,2.4,2.4,2.4,2.4,0,0,0-2.4-2.4Z"/>
    <path class="cls-10" d="M113.9,140.2h0a1,1,0,0,0-.3,1.3l.9,1.5a1,1,0,0,0,1.3.3h0a1,1,0,0,0,.3-1.3l-.9-1.5a1,1,0,0,0-1.3-.3Z"/>
    <path class="cls-26" d="M137.6,246.5a6.5,6.5,0,0,0-6,8.8h0l6,17.7,6-17.7h0a6.4,6.4,0,0,0,.4-2.3,6.5,6.5,0,0,0-6.5-6.5Z"/>
    <path class="cls-27" d="M137.6,256.6a8.2,8.2,0,1,0,8.2,8.2,8.2,8.2,0,0,0-8.2-8.2Z"/>
    <path class="cls-6" d="M137.6,256.6a8.2,8.2,0,0,0-5,1.7l5,14.8,5-14.8a8.2,8.2,0,0,0-5-1.7Z"/>
    <polygon class="cls-12" points="138.8 234 136.3 234 136.3 254.2 138.8 254.2 138.8 234 138.8 234"/>
    <path class="cls-6" d="M137.6,228.1a2.7,2.7,0,0,0-2.5,3.7h0l2.5,7.5,2.5-7.5h0a2.8,2.8,0,0,0,.2-1,2.7,2.7,0,0,0-2.7-2.7Z"/>
    <polygon class="cls-10" points="139.3 259.2 138.8 259.2 138.8 268.6 139.3 268.6 139.3 259.2 139.3 259.2"/>
    <polygon class="cls-10" points="138.3 259.2 137.8 259.2 137.8 268.6 138.3 268.6 138.3 259.2 138.3 259.2"/>
    <polygon class="cls-10" points="137.3 259.2 136.8 259.2 136.8 268.6 137.3 268.6 137.3 259.2 137.3 259.2"/>
    <polygon class="cls-10" points="136.3 259.2 135.9 259.2 135.9 268.6 136.3 268.6 136.3 259.2 136.3 259.2"/>
    <path class="cls-12" d="M137.6,253.4a3.2,3.2,0,1,0,3.2,3.2,3.2,3.2,0,0,0-3.2-3.2Z"/>
    <path class="cls-1" d="M137.6,254.8a1.8,1.8,0,1,0,1.8,1.8,1.8,1.8,0,0,0-1.8-1.8Z"/>
    <path class="cls-12" d="M139.8,268.1h-4.5a.6.6,0,0,0-.6.6h0a.6.6,0,0,0,.6.6h4.5a.6.6,0,0,0,.6-.6h0a.6.6,0,0,0-.6-.6Z"/>
    <polygon class="cls-4" points="74.2 175.8 0 175.8 0 199.8 74.2 199.8 74.2 175.8 74.2 175.8"/>
    <polygon class="cls-7" points="74.2 301.4 74.2 350.5 50.2 350.5 50.2 301.4 74.2 301.4 74.2 301.4"/>
    <path class="cls-10" d="M66,307.2H65v2h1a1,1,0,0,0,1-1h0a1,1,0,0,0-1-1Z"/>
    <path class="cls-10" d="M66,309.5H65v2h1a1,1,0,0,0,1-1h0a1,1,0,0,0-1-1Z"/>
    <path class="cls-10" d="M58.4,307.2h1v2h-1a1,1,0,0,1-1-1h0a1,1,0,0,1,1-1Z"/>
    <path class="cls-10" d="M58.4,309.5h1v2h-1a1,1,0,0,1-1-1h0a1,1,0,0,1,1-1Z"/>
    <path class="cls-2" d="M62.2,332.7a11.1,11.1,0,0,0-5.7,1.5,4.1,4.1,0,0,1-1.3.9,6.5,6.5,0,0,0-2.4,4.9c0,4,4.2,7.3,9.4,7.3s9.4-3.3,9.4-7.3a6.5,6.5,0,0,0-2.4-4.9,4.1,4.1,0,0,1-1.3-.9,11.1,11.1,0,0,0-5.7-1.5Z"/>
    <path class="cls-2" d="M62.2,304.5h0a2.9,2.9,0,0,0-2.8,2.8v3.9a2.9,2.9,0,0,0,2.8,2.8h0a2.9,2.9,0,0,0,2.8-2.8v-3.9a2.9,2.9,0,0,0-2.8-2.8Z"/>
    <path class="cls-28" d="M62.2,310.1a1.7,1.7,0,0,1,1.2,3c-.9,1.1-1,3.2.1,4.2a3.1,3.1,0,0,1,1.3,2.3v3.8a2.1,2.1,0,0,0,.9,1.8,7.7,7.7,0,0,1,3,2.9,4.1,4.1,0,0,0-1.9,3.5h0a4.1,4.1,0,0,0,3,3.9v3.7a7.6,7.6,0,0,1-7.6,7.6h0a7.6,7.6,0,0,1-7.6-7.6v-3.7a4.1,4.1,0,0,0,3-3.9h0a4.1,4.1,0,0,0-1.9-3.5,7.7,7.7,0,0,1,3-2.9,2.1,2.1,0,0,0,.9-1.8v-3.8a3.1,3.1,0,0,1,1.3-2.3c1.1-1,1-3.1.1-4.2a1.7,1.7,0,0,1,1.2-3Z"/>
    <path class="cls-10" d="M62.2,310.8a1.1,1.1,0,1,1-1.1,1.1,1.1,1.1,0,0,1,1.1-1.1Z"/>
    <path class="cls-3" d="M62.2,336.7a2.8,2.8,0,1,0,2.8,2.8,2.8,2.8,0,0,0-2.8-2.8Z"/>
    <path class="cls-5" d="M65.9,339.5a3.7,3.7,0,1,1-3.7-3.7,3.7,3.7,0,0,1,3.7,3.7Z"/>
    <polygon class="cls-10" points="63.7 324.9 63.3 324.9 63.3 341.4 63.7 341.4 63.7 324.9 63.7 324.9"/>
    <path class="cls-10" d="M63.5,324.5a.4.4,0,1,0,.4.4.4.4,0,0,0-.4-.4Z"/>
    <polygon class="cls-10" points="62.4 324.9 62 324.9 62 341.4 62.4 341.4 62.4 324.9 62.4 324.9"/>
    <path class="cls-10" d="M62.2,324.5a.4.4,0,1,0,.4.4.4.4,0,0,0-.4-.4Z"/>
    <polygon class="cls-10" points="61.1 324.9 60.7 324.9 60.7 341.4 61.1 341.4 61.1 324.9 61.1 324.9"/>
    <path class="cls-10" d="M60.9,324.5a.4.4,0,1,0,.4.4.4.4,0,0,0-.4-.4Z"/>
    <path class="cls-10" d="M64.6,339.5a2.4,2.4,0,1,1-2.4-2.4,2.4,2.4,0,0,1,2.4,2.4Z"/>
    <path class="cls-28" d="M63.5,339.5a1.3,1.3,0,1,1-1.3-1.3,1.3,1.3,0,0,1,1.3,1.3Z"/>
    <polygon class="cls-9" points="226.1 125.6 250 125.6 250 174.6 226.1 174.6 226.1 125.6 226.1 125.6"/>
    <path class="cls-4" d="M239.4,132v16.9c0,2.6,3.7.8,3.7,6.1v1.8a8.7,8.7,0,1,1-10.2,0V155c0-5.2,3.7-3.4,3.7-6.1V132Z"/>
    <path class="cls-29" d="M239.4,148.9c0,2.6,3.7.8,3.7,6.1v1.8a8.7,8.7,0,0,1,3,3.9v4.9h-6.8V148.9Z"/>
    <path class="cls-8" d="M238,155.2a8.7,8.7,0,1,1-8.7,8.7,8.7,8.7,0,0,1,8.7-8.7Z"/>
    <path class="cls-4" d="M238,160a3.8,3.8,0,1,1-3.8,3.8A3.8,3.8,0,0,1,238,160Z"/>
    <path class="cls-1" d="M238,161.4a2.5,2.5,0,1,1-2.5,2.5,2.5,2.5,0,0,1,2.5-2.5Z"/>
    <path class="cls-4" d="M236.7,137.1v-6.6a2.8,2.8,0,0,1,2.8-2.8h2.8v6.6a2.8,2.8,0,0,1-2.8,2.8Z"/>
    <polygon class="cls-4" points="239.8 127.7 245.4 127.7 242.1 135.3 239.8 127.7 239.8 127.7"/>
    <path class="cls-10" d="M169.3,218.5V207.3a3.4,3.4,0,0,0-3.4-3.4h0a3.4,3.4,0,0,0-3.4,3.4v11.2a3.4,3.4,0,0,0,3.4,3.4h0a3.4,3.4,0,0,0,3.4-3.4Z"/>
    <path class="cls-10" d="M161.4,218.5V207.3a3.4,3.4,0,0,0-3.4-3.4h0a3.4,3.4,0,0,0-3.4,3.4v11.2a3.4,3.4,0,0,0,3.4,3.4h0a3.4,3.4,0,0,0,3.4-3.4Z"/>
    <path class="cls-10" d="M153.5,218.5V207.3a3.4,3.4,0,0,0-3.4-3.4h0a3.4,3.4,0,0,0-3.4,3.4v11.2a3.4,3.4,0,0,0,3.4,3.4h0a3.4,3.4,0,0,0,3.4-3.4Z"/>
    <path class="cls-10" d="M145.6,218.5V207.3a3.4,3.4,0,0,0-3.4-3.4h0a3.4,3.4,0,0,0-3.4,3.4v11.2a3.4,3.4,0,0,0,3.4,3.4h0a3.4,3.4,0,0,0,3.4-3.4Z"/>
    <path class="cls-10" d="M137.8,218.5V207.3a3.4,3.4,0,0,0-3.4-3.4h0a3.4,3.4,0,0,0-3.4,3.4v11.2a3.4,3.4,0,0,0,3.4,3.4h0a3.4,3.4,0,0,0,3.4-3.4Z"/>
    <path class="cls-1" d="M164.4,213.2v-6.4a2.4,2.4,0,0,0-2.4-2.4h0a2.4,2.4,0,0,0-2.4,2.4v6.4a2.4,2.4,0,0,0,2.4,2.4h0a2.4,2.4,0,0,0,2.4-2.4Z"/>
    <path class="cls-1" d="M156.5,213.2v-6.4a2.4,2.4,0,0,0-2.4-2.4h0a2.4,2.4,0,0,0-2.4,2.4v6.4a2.4,2.4,0,0,0,2.4,2.4h0a2.4,2.4,0,0,0,2.4-2.4Z"/>
    <path class="cls-1" d="M140.7,213.2v-6.4a2.4,2.4,0,0,0-2.4-2.4h0a2.4,2.4,0,0,0-2.4,2.4v6.4a2.4,2.4,0,0,0,2.4,2.4h0a2.4,2.4,0,0,0,2.4-2.4Z"/>
    <path class="cls-1" d="M148.6,213.2v-6.4a2.4,2.4,0,0,0-2.4-2.4h0a2.4,2.4,0,0,0-2.4,2.4v6.4a2.4,2.4,0,0,0,2.4,2.4h0a2.4,2.4,0,0,0,2.4-2.4Z"/>
    <path class="cls-8" d="M39.4,138.7c2.7,8.5,5.8,20.1,8.5,28.2a3.3,3.3,0,0,1-2.5,4c-1.9.4-3.3-.8-4.2-2.6-1.5-3.6-6.8-5.6-9.8-5.7l7.1-6.2,1.5,6.2a1.2,1.2,0,0,0,1.4.9,1.2,1.2,0,0,0,.9-1.4l-4.5-23,1.6-.4Z"/>
    <path class="cls-8" d="M45.7,133.3l-4.6.5a2.7,2.7,0,0,0-2.1,3.4l1.4,5.1-2,.5-.9-4.5c-.5-2.5,1.1-4.4,3.4-5.5l4.2-2,.6,2.5Z"/>
    <path class="cls-8" d="M45.6,130.7a1.3,1.3,0,1,0,1.6,1,1.3,1.3,0,0,0-1.6-1Z"/>
    <path class="cls-8" d="M38.6,142.3l1.6-.4a.4.4,0,0,1,.5.3h0a.4.4,0,0,1-.3.5l-1.6.4a.4.4,0,0,1-.5-.3h0a.4.4,0,0,1,.3-.5Z"/>
    <path class="cls-10" d="M43,157.1l2-.5a.9.9,0,0,1,1,.6h0a.9.9,0,0,1-.6,1l-2,.5a.9.9,0,0,1-1-.6h0a.9.9,0,0,1,.6-1Z"/>
    <path class="cls-10" d="M42.3,154.3l2-.5a.9.9,0,0,1,1,.6h0a.9.9,0,0,1-.6,1l-2,.5a.9.9,0,0,1-1-.6h0a.9.9,0,0,1,.6-1Z"/>
    <path class="cls-10" d="M41.7,151.6l2-.5a.9.9,0,0,1,1,.6h0a.9.9,0,0,1-.6,1l-2,.5a.9.9,0,0,1-1-.6h0a.9.9,0,0,1,.6-1Z"/>
    <path class="cls-9" d="M41,148.8l2-.5a.9.9,0,0,1,1,.6h0a.9.9,0,0,1-.6,1l-2,.5a.9.9,0,0,1-1-.6h0a.9.9,0,0,1,.6-1Z"/>
    <path class="cls-30" d="M32.6,162.5l2.4-.6a4.6,4.6,0,0,0,3.4-5.6h0a4.6,4.6,0,0,0-5.6-3.4l-2.4.6a4.6,4.6,0,0,0-3.4,5.6h0a4.6,4.6,0,0,0,5.5,3.4Z"/>
    <path class="cls-10" d="M30.8,155l2.4-.6a3.1,3.1,0,0,1,3.8,2.3h0a3.1,3.1,0,0,1-2.3,3.8l-2.4.6a3.1,3.1,0,0,1-3.8-2.3h0a3.1,3.1,0,0,1,2.3-3.8Z"/>
    <path class="cls-6" d="M32.3,155.8a2,2,0,1,1-1.5,2.4,2,2,0,0,1,1.5-2.4Z"/>
    <polygon class="cls-10" points="31.9 149.9 31.4 151.6 29.6 151.6 31 152.7 30.5 154.3 31.9 153.3 33.3 154.3 32.8 152.7 34.2 151.6 32.5 151.6 31.9 149.9 31.9 149.9"/>
    <polygon class="cls-10" points="29 144.9 28.4 146.8 26.3 146.8 28 148.1 27.3 150 29 148.8 30.7 150 30 148.1 31.7 146.8 29.6 146.8 29 144.9 29 144.9"/>
    <polygon class="cls-10" points="35.2 137.8 34.3 140.7 31.3 140.7 33.7 142.5 32.8 145.4 35.2 143.6 37.7 145.4 36.8 142.5 39.2 140.7 36.2 140.7 35.2 137.8 35.2 137.8"/>
    <polygon class="cls-10" points="30.6 129.3 29.6 132.5 26.1 132.5 28.9 134.5 27.9 137.8 30.6 135.8 33.4 137.8 32.4 134.5 35.1 132.5 31.7 132.5 30.6 129.3 30.6 129.3"/>
    <polygon class="cls-12" points="125.6 149.5 174.6 149.5 174.6 125.6 125.6 125.6 125.6 149.5 125.6 149.5"/>
    <polygon class="cls-9" points="148.4 132.5 147.1 132.5 147.1 136.3 148.4 136.3 148.4 132.5 148.4 132.5"/>
    <polygon class="cls-9" points="144.4 132.5 143.2 132.5 143.2 136.3 144.4 136.3 144.4 132.5 144.4 132.5"/>
    <polygon class="cls-9" points="140.5 132.5 139.2 132.5 139.2 136.3 140.5 136.3 140.5 132.5 140.5 132.5"/>
    <polygon class="cls-9" points="157.5 135.1 128.6 135.1 128.6 136.6 157.5 136.6 157.5 135.1 157.5 135.1"/>
    <path class="cls-1" d="M149.8,135.1H137a5.3,5.3,0,0,0-5.3,5.3h0a5.3,5.3,0,0,0,5.3,5.3h12.8a5.3,5.3,0,0,0,5.3-5.3h0a5.3,5.3,0,0,0-5.3-5.3Z"/>
    <path class="cls-9" d="M149.8,144.2a3.7,3.7,0,1,1,3.7-3.7,3.7,3.7,0,0,1-3.7,3.7Z"/>
    <path class="cls-9" d="M137,144.2a3.7,3.7,0,1,1,3.7-3.7,3.7,3.7,0,0,1-3.7,3.7Z"/>
    <polygon class="cls-31" points="164.6 130.3 153.5 135.9 164.6 141.4 164.6 130.3 164.6 130.3"/>
    <path class="cls-2" d="M168.1,129.3a6.5,6.5,0,1,0,6.5,6.5,6.5,6.5,0,0,0-6.5-6.5Z"/>
    <path class="cls-1" d="M168.1,132.1a3.8,3.8,0,1,0,3.8,3.8,3.8,3.8,0,0,0-3.8-3.8Z"/>
    <polygon class="cls-10" points="125.6 133.1 131 135.9 125.6 138.6 125.6 133.1 125.6 133.1"/>
    <path class="cls-10" d="M147.8,128.9h0a1.5,1.5,0,0,0-1.5,1.5v1.8a1.5,1.5,0,0,0,1.5,1.5h0a1.5,1.5,0,0,0,1.5-1.5v-1.8a1.5,1.5,0,0,0-1.5-1.5Z"/>
    <path class="cls-10" d="M143.8,128.9h0a1.5,1.5,0,0,0-1.5,1.5v1.8a1.5,1.5,0,0,0,1.5,1.5h0a1.5,1.5,0,0,0,1.5-1.5v-1.8a1.5,1.5,0,0,0-1.5-1.5Z"/>
    <path class="cls-10" d="M139.8,128.9h0a1.5,1.5,0,0,0-1.5,1.5v1.8a1.5,1.5,0,0,0,1.5,1.5h0a1.5,1.5,0,0,0,1.5-1.5v-1.8a1.5,1.5,0,0,0-1.5-1.5Z"/>
    <path class="cls-9" d="M16.6,128.9A.8.8,0,1,0,17,130a.8.8,0,0,0-.4-1.1Z"/>
    <path class="cls-9" d="M15.6,131.2a.8.8,0,1,0,.4,1.1.8.8,0,0,0-.4-1.1Z"/>
    <path class="cls-9" d="M14.6,133.5a.8.8,0,1,0,.4,1.1.8.8,0,0,0-.4-1.1Z"/>
    <polygon class="cls-32" points="75.4 275.1 75.4 263.2 124.4 263.2 124.4 275.1 75.4 275.1 75.4 275.1"/>
    <polygon class="cls-32" points="75.4 263.2 75.4 251.2 124.4 251.2 124.4 263.2 75.4 263.2 75.4 263.2"/>
    <path class="cls-33" d="M75.4,263.2c4.9,7.1,14,12,24.5,12s19.6-4.8,24.5-12c-4.9-7.1-14-12-24.5-12s-19.6,4.8-24.5,12Z"/>
    <path class="cls-10" d="M118,262.5H81.8a.7.7,0,0,0-.7.7h0a.7.7,0,0,0,.7.7H118a.7.7,0,0,0,.7-.7h0a.7.7,0,0,0-.7-.7Z"/>
    <path class="cls-6" d="M99.9,251.4a11.8,11.8,0,1,0,11.8,11.8,11.8,11.8,0,0,0-11.8-11.8Z"/>
    <path class="cls-1" d="M99.9,254.1a9.1,9.1,0,1,0,9.1,9.1,9.1,9.1,0,0,0-9.1-9.1Z"/>
    <polygon class="cls-9" points="99.9 254.1 98.2 257.5 95 255.5 95.4 259.3 91.7 259.4 94 262.3 90.9 264.4 94.5 265.6 93 269.1 96.7 268.1 97.3 271.8 99.9 269.1 102.4 271.8 103.1 268.1 106.7 269.1 105.2 265.6 108.8 264.4 105.7 262.3 108.1 259.4 104.3 259.3 104.8 255.5 101.5 257.5 99.9 254.1 99.9 254.1"/>
    <path class="cls-2" d="M99.9,257.4a5.7,5.7,0,1,0,5.7,5.7,5.7,5.7,0,0,0-5.7-5.7Z"/>
    <path class="cls-8" d="M99.9,260.3a2.9,2.9,0,1,0,2.9,2.9,2.9,2.9,0,0,0-2.9-2.9Z"/>
    <path class="cls-7" d="M57.9,211a7.5,7.5,0,1,1,7.5,7.5,7.5,7.5,0,0,1-7.5-7.5Z"/>
    <polygon class="cls-9" points="49.6 213.7 49.6 216 48.5 216 48.5 213.7 49.6 213.7 49.6 213.7"/>
    <polygon class="cls-9" points="46.1 213.7 46.1 216 45 216 45 213.7 46.1 213.7 46.1 213.7"/>
    <polygon class="cls-9" points="42.6 213.7 42.6 216 41.5 216 41.5 213.7 42.6 213.7 42.6 213.7"/>
    <path class="cls-2" d="M49.8,213.2H48.5a.6.6,0,0,0-.6.5h0a.5.5,0,0,0,.5.5h1.3a.5.5,0,0,0,.5-.5h0a.5.5,0,0,0-.5-.5Z"/>
    <path class="cls-2" d="M46.2,213.2H44.9a.5.5,0,0,0-.5.5h0a.5.5,0,0,0,.5.5h1.3a.5.5,0,0,0,.5-.5h0a.6.6,0,0,0-.5-.5Z"/>
    <path class="cls-2" d="M42.7,213.2H41.4a.5.5,0,0,0-.5.5h0a.5.5,0,0,0,.5.5h1.3a.5.5,0,0,0,.5-.5h0a.5.5,0,0,0-.5-.5Z"/>
    <path class="cls-7" d="M38.5,214.6H28.7a2.3,2.3,0,0,0,0,4.6H55.1v-.9h-26a1.4,1.4,0,0,1,0-2.8h9.3v-.9Z"/>
    <path class="cls-34" d="M65.4,217.2l-5.7-8.9c-1.7,3.8-5.6,6.3-10.1,6.7l-12.2,1.3v.9Z"/>
    <path class="cls-35" d="M65.4,204.7a6.3,6.3,0,1,1-6.3,6.3,6.3,6.3,0,0,1,6.3-6.3Z"/>
    <path class="cls-10" d="M65.4,207.3a3.6,3.6,0,1,1-3.6,3.6,3.6,3.6,0,0,1,3.6-3.6Z"/>
    <path class="cls-16" d="M65.4,208.5a2.5,2.5,0,1,1-2.5,2.5,2.5,2.5,0,0,1,2.5-2.5Z"/>
    <path class="cls-9" d="M38.7,217.2V214a3.3,3.3,0,0,0-3.3-3.3h0a3.3,3.3,0,0,0-3.3,3.3h0a3.3,3.3,0,0,0,3.3,3.3Z"/>
    <path class="cls-2" d="M55.1,219.2a3.1,3.1,0,1,1-6.3,0H50a2,2,0,1,0,3.9,0Z"/>
    <path class="cls-2" d="M50,219.2a3.1,3.1,0,1,1-6.3,0H45a2,2,0,1,0,3.9,0Z"/>
    <path class="cls-2" d="M45,219.2a3.1,3.1,0,1,1-6.3,0h1.2a2,2,0,1,0,3.9,0Z"/>
    <polygon class="cls-36" points="99.3 175.8 75.4 175.8 75.4 250 99.3 250 99.3 175.8 99.3 175.8"/>
    <path class="cls-18" d="M75.4,176.5h.9a9,9,0,0,1,6.7,3,7.5,7.5,0,0,1,5,7.1,7.3,7.3,0,0,1-.1,1.4,7.6,7.6,0,0,1,0,2.8,7.3,7.3,0,0,1,.1,1.4,7.5,7.5,0,0,1-2.8,5.8v6.4a11.1,11.1,0,0,1,5,17,17.5,17.5,0,0,1-14,28.1h-.9V176.5Z"/>
    <path class="cls-34" d="M75.4,180.4h.9a5.2,5.2,0,0,1,4.5,2.6,3.7,3.7,0,0,1,3.2,5,3.7,3.7,0,0,1,0,2.8,3.7,3.7,0,0,1-2.5,4.9v11.7a7.3,7.3,0,0,1,3.3,13.8,13.7,13.7,0,0,1-8.5,24.4h-.9V180.4Z"/>
    <path class="cls-2" d="M78.8,211h-1V185.5a1.5,1.5,0,0,0-1.5-1.5h0a1.5,1.5,0,0,0-.9.3v57.6h.9A10,10,0,0,0,81,223a2.5,2.5,0,0,1,.8-4.7,3.7,3.7,0,0,0-.6-7.3Z"/>
    <polygon class="cls-4" points="77.8 186.3 80 186.3 80 186.9 77.8 186.9 77.8 186.3 77.8 186.3"/>
    <path class="cls-2" d="M80.5,185.6a1,1,0,1,1-1,1,1,1,0,0,1,1-1Z"/>
    <polygon class="cls-4" points="77.8 189 80 189 80 189.6 77.8 189.6 77.8 189 77.8 189"/>
    <path class="cls-2" d="M80.5,188.3a1,1,0,1,1-1,1,1,1,0,0,1,1-1Z"/>
    <polygon class="cls-4" points="77.8 191.8 80 191.8 80 192.4 77.8 192.4 77.8 191.8 77.8 191.8"/>
    <path class="cls-2" d="M80.5,191.1a1,1,0,1,1-1,1,1,1,0,0,1,1-1Z"/>
    <path class="cls-32" d="M76.3,227.6a4.6,4.6,0,0,1,0,9.3h-.9v-9.1Z"/>
    <path class="cls-1" d="M76.3,229.7a2.5,2.5,0,0,1,0,5l-.9-.2v-4.7l.9-.2Z"/>
    <path class="cls-37" d="M76.3,242.9h-.9v-1h.9A10,10,0,0,0,81,223a2.5,2.5,0,0,1,.8-4.7,3.7,3.7,0,0,0-.6-7.3H77.8v-1h3.5a4.7,4.7,0,0,1,.8,9.3,1.5,1.5,0,0,0-.4,2.8,11,11,0,0,1-5.3,20.7Z"/>
    <path class="cls-37" d="M76.3,182.9a2.5,2.5,0,0,1,2.5,2.5V211h-1V185.5a1.5,1.5,0,0,0-1.5-1.5h0a1.5,1.5,0,0,0-.9.3v-1.1l.9-.2Z"/>
    <path class="cls-10" d="M83.4,179a8.1,8.1,0,0,1,5.3,7.6,8.2,8.2,0,0,1-.1,1.4,8.3,8.3,0,0,1,0,2.8,8.2,8.2,0,0,1,.1,1.4,8.1,8.1,0,0,1-2.8,6.1v5.7A11.8,11.8,0,0,1,91,221.3,18.1,18.1,0,0,1,76.3,250h-.9v-.6h.9a17.5,17.5,0,0,0,14-28.1,11.1,11.1,0,0,0-5-17v-6.4a7.5,7.5,0,0,0,2.8-5.8,7.3,7.3,0,0,0-.1-1.4,7.6,7.6,0,0,0,0-2.8,7.3,7.3,0,0,0,.1-1.4,7.5,7.5,0,0,0-5-7.1,9,9,0,0,0-6.7-3h-.9v-.6h.9a9.6,9.6,0,0,1,7.1,3.1Z"/>
    <path class="cls-7" d="M85.6,221.2A14.2,14.2,0,0,1,76.3,246h-.9v-.5h.9a13.7,13.7,0,0,0,8.5-24.4,7.3,7.3,0,0,0-3.3-13.8V195.6a3.7,3.7,0,0,0,2.5-4.9,3.7,3.7,0,0,0,0-2.8,3.7,3.7,0,0,0-3.2-5,5.2,5.2,0,0,0-4.5-2.6h-.9v-.5h.9a5.7,5.7,0,0,1,4.8,2.7,4.1,4.1,0,0,1,3.4,5.5,4.2,4.2,0,0,1,0,2.8,4.1,4.1,0,0,1-2.5,5.3v10.9a7.8,7.8,0,0,1,3.7,14.3Z"/>
    <polygon class="cls-6" points="12 253.5 9.4 260.7 1.8 260.9 7.8 265.5 5.7 272.8 12 268.5 18.2 272.8 16.1 265.5 22.1 260.9 14.5 260.7 12 253.5 12 253.5"/>
    <path class="cls-5" d="M201,196.7v3h49v-9.9h-.3a2.1,2.1,0,0,1-2-1.6h-4.4a4.4,4.4,0,0,1-2.7,7.9H228.4a4.4,4.4,0,0,1-3.2-7.4H225c-17.3,0-23,5.3-24.1,8Z"/>
    <path class="cls-6" d="M243.4,188.3h-18a5.8,5.8,0,0,0-5.8,5.8h0a5.8,5.8,0,0,0,5.8,5.8h18a5.8,5.8,0,0,0,5.8-5.8h0a5.8,5.8,0,0,0-5.8-5.8Z"/>
    <path class="cls-2" d="M240.9,188.3l-14,.3a3.4,3.4,0,0,0,1.5,6.5h12.2a3.4,3.4,0,0,0,.3-6.8Z"/>
    <path class="cls-4" d="M250,175.8H201v3c1.1,2.7,6.8,8,24.1,8l22.7.4a2.1,2.1,0,0,1,2-1.6h.3v-9.9Z"/>
    <polygon class="cls-10" points="240.9 179 240.3 179 240.3 185 240.9 185 240.9 179 240.9 179"/>
    <polygon class="cls-10" points="236.8 179 236.2 179 236.2 185 236.8 185 236.8 179 236.8 179"/>
    <polygon class="cls-10" points="232.7 179 232.1 179 232.1 185 232.7 185 232.7 179 232.7 179"/>
    <polygon class="cls-10" points="228.6 179 228 179 228 185 228.6 185 228.6 179 228.6 179"/>
    <path class="cls-3" d="M227.1,179a1.2,1.2,0,1,1,1.2,1.2,1.2,1.2,0,0,1-1.2-1.2Z"/>
    <path class="cls-3" d="M231.2,179a1.2,1.2,0,1,1,1.2,1.2,1.2,1.2,0,0,1-1.2-1.2Z"/>
    <path class="cls-3" d="M235.3,179a1.2,1.2,0,1,1,1.2,1.2,1.2,1.2,0,0,1-1.2-1.2Z"/>
    <path class="cls-3" d="M239.4,179a1.2,1.2,0,1,1,1.2,1.2,1.2,1.2,0,0,1-1.2-1.2Z"/>
    <path class="cls-10" d="M203.2,189.4h0Z"/>
    <path class="cls-3" d="M201,196.7c1.1-2.7,6.8-8,24.1-8v-1.8c-17.3,0-23-5.3-24.1-8v17.8Z"/>
    <path class="cls-8" d="M245,191.7a4.4,4.4,0,0,1-4.4,4.4H228.4a4.4,4.4,0,0,1-3.2-7.4H225v-1.8l24.6.5v.9h-6.3a4.4,4.4,0,0,1,1.7,3.5Zm-4.1-3.4-14,.3a3.4,3.4,0,0,0,1.5,6.5h12.2a3.4,3.4,0,0,0,.3-6.8Z"/>
    <path class="cls-1" d="M249.7,185.7a2.1,2.1,0,1,0,0,4.2h.3v-4.1Z"/>
    <path class="cls-3" d="M240.3,189.2a2.6,2.6,0,1,0,2.6,2.6,2.6,2.6,0,0,0-2.6-2.6Z"/>
    <path class="cls-3" d="M228.7,189.2a2.6,2.6,0,1,0,2.6,2.6,2.6,2.6,0,0,0-2.6-2.6Z"/>
    <path class="cls-6" d="M242.6,184.3H226a.6.6,0,0,0-.6.6h0a.6.6,0,0,0,.6.6h16.5a.6.6,0,0,0,.6-.6h0a.6.6,0,0,0-.6-.6Z"/>
    <path class="cls-10" d="M242.6,213H227.1a43.9,43.9,0,0,1-19.8-4.3l-.5-.3.5-1.1.5.3a42.7,42.7,0,0,0,19.3,4.1h15.5V213Z"/>
    <path class="cls-10" d="M242.6,211.9H227.1a43.9,43.9,0,0,0-19.8,4.3l-.5.3.5,1.1.5-.3a42.7,42.7,0,0,1,19.3-4.1h15.5v-1.2Z"/>
    <path class="cls-10" d="M207.6,218.6V206.3a.6.6,0,0,0-.6-.6h0a.6.6,0,0,0-.6.6v12.2a.6.6,0,0,0,.6.6h0a.6.6,0,0,0,.6-.6Z"/>
    <path class="cls-10" d="M224.8,211.9h11.6a3.9,3.9,0,0,1,3.9,3.9h0a3.9,3.9,0,0,1-3.9,3.9H224.8a3.9,3.9,0,0,1-3.9-3.9h0a3.9,3.9,0,0,1,3.9-3.9Zm0,1.2h11.6a2.7,2.7,0,0,1,2.7,2.7h0a2.7,2.7,0,0,1-2.7,2.7H224.8a2.7,2.7,0,0,1-2.7-2.7h0a2.7,2.7,0,0,1,2.7-2.7Z"/>
    <path class="cls-10" d="M227.4,220.2v-10a.6.6,0,1,0-1.2,0v10a.6.6,0,0,0,.6.6h0a.6.6,0,0,0,.6-.6Z"/>
    <path class="cls-10" d="M228.3,210.1h0a.6.6,0,0,0-.6-.6H226a.6.6,0,0,0-.6.6h0a.6.6,0,0,0,.6.6h1.7a.6.6,0,0,0,.6-.6Z"/>
    <path class="cls-10" d="M231.2,220.2v-10a.6.6,0,0,0-1.2,0v10a.6.6,0,0,0,.6.6h0a.6.6,0,0,0,.6-.6Z"/>
    <path class="cls-10" d="M232,210.1h0a.6.6,0,0,0-.6-.6h-1.7a.6.6,0,0,0-.6.6h0a.6.6,0,0,0,.6.6h1.7a.6.6,0,0,0,.6-.6Z"/>
    <path class="cls-10" d="M235,220.2v-10a.6.6,0,1,0-1.2,0v10a.6.6,0,0,0,.6.6h0a.6.6,0,0,0,.6-.6Z"/>
    <path class="cls-10" d="M235.8,210.1h0a.6.6,0,0,0-.6-.6h-1.7a.6.6,0,0,0-.6.6h0a.6.6,0,0,0,.6.6h1.7a.6.6,0,0,0,.6-.6Z"/>
    <path class="cls-10" d="M244.4,210.2a2.3,2.3,0,1,1-2.3,2.3,2.3,2.3,0,0,1,2.3-2.3Zm0,1.2a1.1,1.1,0,1,1-1.1,1.1,1.1,1.1,0,0,1,1.1-1.1Z"/>
    <path class="cls-10" d="M205.5,219.3V205.6a.6.6,0,0,0-.6-.6h0a.6.6,0,0,0-.6.6v13.7a.6.6,0,0,0,.6.6h0a.6.6,0,0,0,.6-.6Z"/>
    <polygon class="cls-38" points="99.3 276.3 75.4 276.3 75.4 350.5 99.3 350.5 99.3 276.3 99.3 276.3"/>
    <polygon class="cls-31" points="250 301.4 226.1 301.4 226.1 350.5 250 350.5 250 301.4 250 301.4"/>
    <polygon class="cls-4" points="237.7 322.8 238.4 322.8 238.4 348 237.7 348 237.7 322.8 237.7 322.8"/>
    <polygon class="cls-4" points="246.3 310.4 238 330.6 229.8 310.4 246.3 310.4 246.3 310.4"/>
    <polygon class="cls-6" points="226.1 301.4 250 301.4 246.3 310.4 229.8 310.4 226.1 301.4 226.1 301.4"/>
    <path class="cls-6" d="M238,346.9a4.9,4.9,0,0,1,4.7,3.6h-9.5a4.9,4.9,0,0,1,4.7-3.6Z"/>
    <path class="cls-10" d="M233.7,304a1.9,1.9,0,1,1-1.9,1.9,1.9,1.9,0,0,1,1.9-1.9Z"/>
    <path class="cls-10" d="M240.7,312.3a1.9,1.9,0,1,1-1.9,1.9,1.9,1.9,0,0,1,1.9-1.9Z"/>
    <path class="cls-10" d="M237.6,318.5a1.9,1.9,0,1,1-1.9,1.9,1.9,1.9,0,0,1,1.9-1.9Z"/>
    <polygon class="cls-3" points="199.8 326.6 150.7 326.6 150.7 350.5 199.8 350.5 199.8 326.6 199.8 326.6"/>
    <path class="cls-6" d="M171.8,334.6v3h-3.2v-.3a2.7,2.7,0,0,0,2.7-2.7Z"/>
    <path class="cls-6" d="M174,343.7h-2.7V330.2a2.1,2.1,0,0,1,2.1-2.1h.6v15.4Z"/>
    <path class="cls-6" d="M173.3,328.1h.6v3.3h-.2a.5.5,0,0,1-.5-.5v-2.9Z"/>
    <path class="cls-6" d="M172.2,337.3v2.9H153.7a1.4,1.4,0,0,1-1.4-1.4h0a1.4,1.4,0,0,1,1.4-1.4Z"/>
    <path class="cls-6" d="M173.2,334.5v4.2h4.6v-.4a3.8,3.8,0,0,1-3.8-3.8Z"/>
    <path class="cls-6" d="M177.6,338.6v7.9a2.6,2.6,0,0,1-2.6,2.6h-8v-2.5h.4a.2.2,0,0,0,.2-.2h0a.2.2,0,0,0-.2-.2h-.4v-2.5h.4a.2.2,0,0,0,.2-.2h0a.2.2,0,0,0-.2-.2h-.4v-2.5h.4a.2.2,0,0,0,.2-.2h0a.2.2,0,0,0-.2-.2h-.4v-1.6Z"/>
    <polygon class="cls-6" points="193.2 347.9 193.2 338.3 173.4 338.3 173.4 347.9 193.2 347.9 193.2 347.9"/>
    <path class="cls-23" d="M171,341.9h0a1.2,1.2,0,0,0-1.2-1.2h-5.9a1.2,1.2,0,0,0-1.2,1.2h0a1.2,1.2,0,0,0,1.2,1.2h5.9a1.2,1.2,0,0,0,1.2-1.2Z"/>
    <path class="cls-23" d="M171,341.9h0a1.2,1.2,0,0,0-.3-.8h-1.2a.8.8,0,0,0-.8.8h0a.8.8,0,0,0,.8.8h1.2a1.2,1.2,0,0,0,.3-.8Z"/>
    <path class="cls-23" d="M171,344.9h0a1.2,1.2,0,0,0-1.2-1.2h-5.9a1.2,1.2,0,0,0-1.2,1.2h0a1.2,1.2,0,0,0,1.2,1.2h5.9a1.2,1.2,0,0,0,1.2-1.2Z"/>
    <path class="cls-23" d="M171,344.9h0a1.2,1.2,0,0,0-.3-.8h-1.2a.8.8,0,0,0-.8.8h0a.8.8,0,0,0,.8.8h1.2a1.2,1.2,0,0,0,.3-.8Z"/>
    <path class="cls-23" d="M171,347.8h0a1.2,1.2,0,0,0-1.2-1.2h-5.9a1.2,1.2,0,0,0-1.2,1.2h0a1.2,1.2,0,0,0,1.2,1.2h5.9a1.2,1.2,0,0,0,1.2-1.2Z"/>
    <path class="cls-23" d="M171,347.8h0a1.2,1.2,0,0,0-.3-.8h-1.2a.8.8,0,0,0-.8.8h0a.8.8,0,0,0,.8.8h1.2a1.2,1.2,0,0,0,.3-.8Z"/>
    <polygon class="cls-10" points="180.8 337.4 180.8 348.8 184 348.8 184 337.4 180.8 337.4 180.8 337.4"/>
    <polygon class="cls-3" points="199.8 350.5 199.8 335.8 183.1 335.8 183.1 350.5 199.8 350.5 199.8 350.5"/>
    <path class="cls-8" d="M184.7,347.3a1.4,1.4,0,1,1,1.4,1.4,1.4,1.4,0,0,1-1.4-1.4Z"/>
    <path class="cls-8" d="M188.5,347.3a1.4,1.4,0,1,1,1.4,1.4,1.4,1.4,0,0,1-1.4-1.4Z"/>
    <polygon class="cls-5" points="250 226.1 226.1 226.1 226.1 300.2 250 300.2 250 226.1 250 226.1"/>
    <polygon class="cls-39" points="224.9 226.1 201 226.1 201 275.1 224.9 275.1 224.9 226.1 224.9 226.1"/>
    <path class="cls-4" d="M227.6,285A10.4,10.4,0,1,1,238,295.4,10.4,10.4,0,0,1,227.6,285Z"/>
    <path class="cls-4" d="M237.3,290.3h1.6v6.3a.8.8,0,0,1-.8.8h0a.8.8,0,0,1-.8-.8v-6.3Z"/>
    <path class="cls-8" d="M243.3,280a7.3,7.3,0,1,1-10.6,0v-5.6a5.3,5.3,0,0,1,10.6,0V280Z"/>
    <path class="cls-9" d="M243.3,280a7.3,7.3,0,0,1-5.3,12.4V269.1a5.3,5.3,0,0,1,5.3,5.3V280Z"/>
    <path class="cls-6" d="M234.1,285a4,4,0,1,1,4,4,4,4,0,0,1-4-4Z"/>
    <path class="cls-10" d="M235.5,285a2.5,2.5,0,1,1,2.5,2.5,2.5,2.5,0,0,1-2.5-2.5Z"/>
    <path class="cls-10" d="M243.1,285a5.1,5.1,0,1,0-5.1,5.1,5.1,5.1,0,0,0,5.1-5.1Z"/>
    <path class="cls-9" d="M237,288.1a3.3,3.3,0,1,1,4.1-2.1,3.3,3.3,0,0,1-4.1,2.1Z"/>
    <polygon class="cls-4" points="239.4 237.4 236.8 237.4 236.1 276.3 240.1 276.3 239.4 237.4 239.4 237.4"/>
    <path class="cls-4" d="M242.9,259.2h0a.8.8,0,0,0-.8-.8h-3.7a.8.8,0,0,0-.8.8h0a.8.8,0,0,0,.8.8h3.7a.8.8,0,0,0,.8-.8Z"/>
    <path class="cls-4" d="M242.9,256.3h0a.8.8,0,0,0-.8-.8h-3.7a.8.8,0,0,0-.8.8h0a.8.8,0,0,0,.8.8h3.7a.8.8,0,0,0,.8-.8Z"/>
    <path class="cls-4" d="M242.9,253.4h0a.8.8,0,0,0-.8-.8h-3.7a.8.8,0,0,0-.8.8h0a.8.8,0,0,0,.8.8h3.7a.8.8,0,0,0,.8-.8Z"/>
    <polygon class="cls-8" points="236.2 228.1 240 228.1 240.5 238 235.7 238 236.2 228.1 236.2 228.1"/>
    <path class="cls-9" d="M236,237.4h4.3a1.1,1.1,0,0,1,1.1,1.1h0a1.1,1.1,0,0,1-1.1,1.1H236a1.1,1.1,0,0,1-1.1-1.1h0a1.1,1.1,0,0,1,1.1-1.1Z"/>
    <path class="cls-9" d="M236.8,283.8h0a.3.3,0,0,1,.5,0l.8.8.8-.8a.3.3,0,0,1,.5,0h0a.3.3,0,0,1,0,.5l-.8.8.8.8a.3.3,0,0,1,0,.5h0a.3.3,0,0,1-.5,0l-.8-.8-.8.8a.3.3,0,0,1-.5,0h0a.3.3,0,0,1,0-.5l.8-.8-.8-.8a.3.3,0,0,1,0-.5Z"/>
    <path class="cls-9" d="M234,233.6a1,1,0,1,1-1,1,1,1,0,0,1,1-1Z"/>
    <path class="cls-9" d="M234.2,230.2a1,1,0,1,1-1,1,1,1,0,0,1,1-1Z"/>
    <path class="cls-9" d="M242.1,233.6a1,1,0,1,0,1,1,1,1,0,0,0-1-1Z"/>
    <path class="cls-9" d="M241.9,230.2a1,1,0,1,0,1,1,1,1,0,0,0-1-1Z"/>
    <path class="cls-40" d="M220.9,234.7c.8,10.6,1.3,24.9,2.2,35.1a4,4,0,0,1-4,4c-2.4,0-3.6-1.8-4.2-4.1-.9-5.4-8.4-9.5-11.3-9.5H203l12-10c0,3,0,9.6.1,12.5a1.4,1.4,0,0,0,2.8,0l1-27.9Z"/>
    <path class="cls-6" d="M229.7,230.2l-5.4-.7a3.2,3.2,0,0,0-3.3,3.3l.3,6.4h-2.5v-5.4c.1-3,2.5-4.8,5.4-5.4l5.4-1.2v3.1Z"/>
    <path class="cls-6" d="M230.2,227a1.6,1.6,0,1,0,1.6,1.6,1.6,1.6,0,0,0-1.6-1.6Z"/>
    <path class="cls-10" d="M203,260.1h7a5,5,0,0,0,5-5v-5h-7a5,5,0,0,0-5,5v5Z"/>
    <path class="cls-6" d="M219,238.7h2a.5.5,0,0,1,.5.5h0a.5.5,0,0,1-.5.5h-2a.5.5,0,0,1-.5-.5h0a.5.5,0,0,1,.5-.5Z"/>
    <path class="cls-6" d="M220,257.1h2.4a1,1,0,0,1,1,1h0a1,1,0,0,1-1,1H220a1,1,0,0,1-1-1h0a1,1,0,0,1,1-1Z"/>
    <path class="cls-6" d="M220,253.7h2.4a1,1,0,0,1,1,1h0a1,1,0,0,1-1,1H220a1,1,0,0,1-1-1h0a1,1,0,0,1,1-1Z"/>
    <path class="cls-6" d="M220,250.3h2.4a1,1,0,0,1,1,1h0a1,1,0,0,1-1,1H220a1,1,0,0,1-1-1h0a1,1,0,0,1,1-1Z"/>
    <path class="cls-6" d="M220,246.9h2.4a1,1,0,0,1,1,1h0a1,1,0,0,1-1,1H220a1,1,0,0,1-1-1h0a1,1,0,0,1,1-1Z"/>
    <path class="cls-1" d="M208,258.8h2a3.7,3.7,0,0,0,3.7-3.7h0a3.7,3.7,0,0,0-3.7-3.7h-2a3.7,3.7,0,0,0-3.7,3.7h0a3.7,3.7,0,0,0,3.7,3.7Z"/>
    <path class="cls-6" d="M209.2,258.8h.8a3.7,3.7,0,0,0,3.7-3.7v-.6h-.8a3.7,3.7,0,0,0-3.7,3.7v.6Z"/>
    <polygon class="cls-41" points="100.5 300.2 149.5 300.2 149.5 276.3 100.5 276.3 100.5 300.2 100.5 300.2"/>
    <path class="cls-10" d="M116.7,283a1,1,0,1,1-1.1,1,1.1,1.1,0,0,1,1.1-1Zm-.5,4.7h1V286h0a2.1,2.1,0,1,0-1.1,0h.1v1.6Z"/>
    <path class="cls-10" d="M122,283a1,1,0,1,1-1.1,1,1.1,1.1,0,0,1,1.1-1Zm-.5,4.7h1V286h0a2.1,2.1,0,1,0-1.1,0h0v1.6Z"/>
    <path class="cls-10" d="M127.2,283a1,1,0,1,1-1,1,1.1,1.1,0,0,1,1-1Zm-.5,4.7h1V286h0a2.1,2.1,0,1,0-1.1,0h0v1.6Z"/>
    <path class="cls-10" d="M125.4,288.6a2.5,2.5,0,0,1,0,4.9H114.8a2.5,2.5,0,0,1,0-4.9Zm6.2,0h0c0-.1,0-.2,0-.3a2.8,2.8,0,0,1,0-.5H105.4v1h6.8l-.4.6a3.5,3.5,0,0,0-.6,1.9,3.5,3.5,0,0,0,3.5,3.5h10.5a3.5,3.5,0,0,0,3.5-3.5,3.5,3.5,0,0,0-.6-1.9l-.4-.6Z"/>
    <path class="cls-10" d="M137.7,285.2l-.3.6h-2.9a2.3,2.3,0,0,0,0,4.6h3l.3.6.2.3h-3.5a3.2,3.2,0,1,1,0-6.4h3.4l-.2.3Z"/>
    <path class="cls-10" d="M142.2,283.4a4.7,4.7,0,1,0,4.7,4.7,4.7,4.7,0,0,0-4.7-4.7Zm0-1a5.7,5.7,0,1,1-5.7,5.7,5.7,5.7,0,0,1,5.7-5.7Z"/>
    <path class="cls-10" d="M104.9,288.1a1,1,0,1,1-1-1,1,1,0,0,1,1,1Zm.8,0a1.8,1.8,0,1,0-1.8,1.8,1.8,1.8,0,0,0,1.8-1.8Z"/>
    <path class="cls-10" d="M142.2,286.2a1.9,1.9,0,1,0,1.9,1.9,1.9,1.9,0,0,0-1.9-1.9Zm0-.9a2.8,2.8,0,1,1-2.8,2.8,2.8,2.8,0,0,1,2.8-2.8Z"/>
    <polygon class="cls-1" points="201 0 250 0 250 49 201 49 201 0 201 0"/>
    <path class="cls-6" d="M238,15.4H213.1V31.6A12.5,12.5,0,0,0,225.6,44h0A12.5,12.5,0,0,0,238,31.6V15.4Z"/>
    <path class="cls-1" d="M235.5,16.6H215.6V27.2a10,10,0,1,0,19.9,0V16.6Z"/>
    <path class="cls-6" d="M246.4,15.4a8.4,8.4,0,0,0-8.4,8.4V24h0V15.4Z"/>
    <path class="cls-6" d="M204.5,15.4h.2a8.4,8.4,0,0,1,8.4,8.4V24h0V15.4h-8.6Z"/>
    <path class="cls-6" d="M236,5a10.4,10.4,0,0,0-10.4,10.4h20.9A10.4,10.4,0,0,0,236,5Z"/>
    <path class="cls-6" d="M215.1,5a10.4,10.4,0,0,0-10.4,10.4h20.9A10.4,10.4,0,0,0,215.1,5Z"/>
    <path class="cls-4" d="M234.7,16.6h-4.2v4.6a2.1,2.1,0,0,0,4.2,0V16.6Z"/>
    <path class="cls-4" d="M230,16.6h-4.2v4.6a2.1,2.1,0,0,0,4.2,0V16.6Z"/>
    <path class="cls-4" d="M225.3,16.6h-4.2v4.6a2.1,2.1,0,0,0,4.2,0V16.6Z"/>
    <path class="cls-4" d="M220.6,16.6h-4.2v4.6a2.1,2.1,0,1,0,4.2,0V16.6Z"/>
    <path class="cls-3" d="M136.2,176.3h7.3v-5.2a2.2,2.2,0,0,0-1.1-1.9,2.5,2.5,0,0,1-5,0,2.2,2.2,0,0,0-1.1,1.9v5.2Z"/>
    <path class="cls-3" d="M162.6,172.3a3.5,3.5,0,0,1-3.5-3.5c0-3.1,2.8-3.2,4.5-4.5a5.6,5.6,0,0,0-3.3-10.1h-5.7a5.6,5.6,0,0,0-3.3,10.1c1.8,1.3,4.5,1.4,4.5,4.5a3.5,3.5,0,0,1-3.5,3.5h-16a5.2,5.2,0,0,0-5.2,5.2v9.9a5.2,5.2,0,0,0,5.2,5.2h27.6a5.2,5.2,0,0,0,5.2-5.2v-9.9a5.2,5.2,0,0,0-5.2-5.2Z"/>
    <path class="cls-18" d="M154.7,156.2h5.5a3.6,3.6,0,0,1,0,7.2h-5.5a3.6,3.6,0,0,1,0-7.2Z"/>
    <path class="cls-18" d="M155.7,173.1a11.6,11.6,0,1,1-11.6,11.6,11.6,11.6,0,0,1,11.6-11.6Z"/>
    <path class="cls-3" d="M155.7,176.7a8,8,0,1,1-8,8,8,8,0,0,1,8-8Z"/>
    <path class="cls-10" d="M149.3,184a6.8,6.8,0,0,1,5.4-5.4h.2a.7.7,0,0,1,.2,1.3h-.1a5.5,5.5,0,0,0-4.4,4.4h0a.7.7,0,0,1-1.3-.2Z"/>
    <path class="cls-10" d="M136.5,174.9h5.7a.6.6,0,0,1,.6.6V177a.6.6,0,0,1-.6.6h-5.7a.6.6,0,0,1-.6-.6v-1.5a.6.6,0,0,1,.6-.6Z"/>
    <path class="cls-18" d="M139.9,167.3a1.8,1.8,0,1,1-1.8,1.8,1.8,1.8,0,0,1,1.8-1.8Z"/>
    <path class="cls-8" d="M48.3,253.8H62.5a6.4,6.4,0,0,1,6.4,6.4v6.1a6.4,6.4,0,0,1-6.4,6.4H48.3a6.4,6.4,0,0,1-6.4-6.4v-6.1a6.4,6.4,0,0,1,6.4-6.4Z"/>
    <path class="cls-28" d="M53.1,256.1a7.2,7.2,0,1,1-7.2,7.2,7.2,7.2,0,0,1,7.2-7.2Z"/>
    <path class="cls-12" d="M53.1,260.8a2.4,2.4,0,1,1-2.4,2.4,2.4,2.4,0,0,1,2.4-2.4Z"/>
    <path class="cls-12" d="M62.5,267.5h2.7a.7.7,0,0,1,.7.7h0a.7.7,0,0,1-.7.7H62.5a.7.7,0,0,1-.7-.7h0a.7.7,0,0,1,.7-.7Z"/>
    <path class="cls-12" d="M62.5,265.1h2.7a.7.7,0,0,1,.7.7h0a.7.7,0,0,1-.7.7H62.5a.7.7,0,0,1-.7-.7h0a.7.7,0,0,1,.7-.7Z"/>
    <path class="cls-12" d="M62.5,262.7h2.7a.7.7,0,0,1,.7.7h0a.7.7,0,0,1-.7.7H62.5a.7.7,0,0,1-.7-.7h0a.7.7,0,0,1,.7-.7Z"/>
    <path class="cls-3" d="M53.1,262.9a.3.3,0,1,1-.3.3.3.3,0,0,1,.3-.3Z"/>
    <path class="cls-23" d="M63.9,257.1a1.7,1.7,0,1,1-1.7,1.7,1.7,1.7,0,0,1,1.7-1.7Z"/>
    <path class="cls-12" d="M48.9,232.6l9,19.4H38.1a4.2,4.2,0,1,0,0,8.4h8.8v1.1H35.4A5.8,5.8,0,0,1,31,252l17.9-19.3Z"/>
    <path class="cls-23" d="M57.9,228.5a11.8,11.8,0,1,1-11.8,11.8,11.8,11.8,0,0,1,11.8-11.8Z"/>
    <path class="cls-12" d="M55.6,233.3a8.3,8.3,0,1,1-8.3,8.3,8.3,8.3,0,0,1,8.3-8.3Z"/>
    <path class="cls-2" d="M53.8,249.7a8.3,8.3,0,0,1-6.1-10.6,8.3,8.3,0,0,1,6.1,10.6Z"/>
    <path class="cls-12" d="M48,258.8a2.1,2.1,0,1,1-2.1,2.1,2.1,2.1,0,0,1,2.1-2.1Z"/>
    <polygon class="cls-42" points="47.3 261.9 48.6 261.9 48 264.2 47.3 261.9 47.3 261.9"/>
    <path class="cls-23" d="M48,259.7a1.2,1.2,0,1,1-1.2,1.2,1.2,1.2,0,0,1,1.2-1.2Z"/>
    <path class="cls-12" d="M63.2,257.7h0a.3.3,0,0,1,.4.1l1,1.8a.3.3,0,0,1-.1.4h0a.3.3,0,0,1-.5-.1l-1-1.8a.3.3,0,0,1,.1-.4Z"/>
    <path class="cls-12" d="M54.1,258h-.2a.2.2,0,0,0,.1.2,5,5,0,0,1,4.1,4.1h.2a.2.2,0,0,0,.1-.2,5.4,5.4,0,0,0-4.4-4.4Z"/>
    <polygon class="cls-43" points="199.8 325.4 150.7 325.4 150.7 276.3 199.8 276.3 199.8 325.4 199.8 325.4"/>
    <polygon class="cls-10" points="174.2 299.1 188.3 277.4 170.9 293.8 174.2 299.1 174.2 299.1"/>
    <polygon class="cls-10" points="171.4 307.9 168.7 325.4 166 307.9 171.4 307.9 171.4 307.9"/>
    <polygon class="cls-10" points="173.4 308.3 186.4 325.3 178.1 305.6 173.4 308.3 173.4 308.3"/>
    <polygon class="cls-31" points="166.6 306.5 177.8 306.5 174.8 292.8 169.6 292.8 166.6 306.5 166.6 306.5"/>
    <path class="cls-31" d="M172.2,300.3a10,10,0,0,1,10,10H162.2a10,10,0,0,1,10-10Z"/>
    <polygon class="cls-10" points="167.8 290.5 174.8 307.1 163.9 292.8 167.8 290.5 167.8 290.5"/>
    <path class="cls-8" d="M172.2,277.2h0a6.3,6.3,0,0,1,6.3,6.3v8H165.9v-8a6.3,6.3,0,0,1,6.3-6.3Z"/>
    <path class="cls-16" d="M172.2,277.2h.9v14.2h-7.2v-8a6.3,6.3,0,0,1,6.3-6.3Z"/>
    <path class="cls-8" d="M172.2,277.2h.9v5.3H166a6.3,6.3,0,0,1,6.2-5.4Z"/>
    <path class="cls-10" d="M172.2,279.1a4.3,4.3,0,1,1-4.3,4.3,4.3,4.3,0,0,1,4.3-4.3Z"/>
    <path class="cls-8" d="M172.2,279.1a4.3,4.3,0,0,1,4.2,3.4H168a4.3,4.3,0,0,1,4.2-3.4Z"/>
    <polygon class="cls-10" points="171.3 287.5 173.1 287.5 173.6 292.8 170.8 292.8 171.3 287.5 171.3 287.5"/>
    <path class="cls-8" d="M173.1,279.2a4.3,4.3,0,0,1,0,8.5v-8.5Z"/>
    <path class="cls-16" d="M171.3,287.7h-5.4v2.6a1.2,1.2,0,0,1-1.2,1.2h0a1.2,1.2,0,0,1-1.2-1.2v1.3a4,4,0,0,0,3.9,3.9h0a4,4,0,0,0,3.9-3.9v-3.9Z"/>
    <path class="cls-8" d="M173.1,287.7h5.4v2.6a1.2,1.2,0,0,0,1.2,1.2h0a1.2,1.2,0,0,0,1.2-1.2v1.3a4,4,0,0,1-3.9,3.9h0a4,4,0,0,1-3.9-3.9v-3.9Z"/>
    <path class="cls-44" d="M95.9,298.9V288.2a8.6,8.6,0,1,0-17.3,0v10.8Z"/>
    <path class="cls-7" d="M95.9,299.7V288.2a8.6,8.6,0,1,0-17.3,0v11.6h-.9V288.2a9.5,9.5,0,1,1,19,0v11.6Z"/>
    <path class="cls-45" d="M83.7,282.2h7.2a1.8,1.8,0,0,1,1.7,1.7v5.8a5.3,5.3,0,0,1-10.7,0v-5.8a1.7,1.7,0,0,1,1.7-1.7Z"/>
    <path class="cls-3" d="M83.7,283.1a.9.9,0,0,0-.9.9v5.8a4.4,4.4,0,1,0,8.9,0v-5.8a.9.9,0,0,0-.9-.9Z"/>
    <path class="cls-31" d="M87.3,338c31.1-40.1-31.1-40.1,0,0Z"/>
    <polygon class="cls-45" points="87.8 319 86.9 319 86.9 348.1 87.8 348.1 87.8 319 87.8 319"/>
    <polygon class="cls-31" points="92.3 301.1 82.3 301.1 82.3 311.3 92.3 311.3 92.3 301.1 92.3 301.1"/>
    <path class="cls-31" d="M92.3,295.6a5.4,5.4,0,1,0,5.4,5.4,5.4,5.4,0,0,0-5.4-5.4Z"/>
    <path class="cls-45" d="M92.3,297.1a4,4,0,1,0,4,4,4,4,0,0,0-4-4Z"/>
    <path class="cls-31" d="M82.3,295.6a5.4,5.4,0,1,0,5.4,5.4,5.4,5.4,0,0,0-5.4-5.4Z"/>
    <path class="cls-45" d="M82.3,297.1a4,4,0,1,0,4,4,4,4,0,0,0-4-4Z"/>
    <path class="cls-7" d="M92.3,299.5a1.5,1.5,0,1,0,1.5,1.5,1.5,1.5,0,0,0-1.5-1.5Z"/>
    <path class="cls-7" d="M82.3,299.5a1.5,1.5,0,1,0,1.5,1.5,1.5,1.5,0,0,0-1.5-1.5Z"/>
    <path class="cls-7" d="M90.4,317.1a1.5,1.5,0,0,0-2.1,0l-1,1-1-1a1.5,1.5,0,0,0-2.1,2.1l3.1,3.1,3.1-3.1a1.5,1.5,0,0,0,0-2.1Z"/>
    <polygon class="cls-11" points="149.5 75.4 149.5 124.4 125.6 124.4 125.6 75.4 149.5 75.4 149.5 75.4"/>
    <polygon class="cls-8" points="146.8 111 137.6 111 137.6 124.4 149.3 124.4 146.8 111 146.8 111"/>
    <polygon class="cls-8" points="137.6 111 128.3 111 125.8 124.4 137.6 124.4 137.6 111 137.6 111"/>
    <path class="cls-11" d="M137.6,93.3a6.8,6.8,0,1,0,6.8,6.8,6.8,6.8,0,0,0-6.8-6.8Z"/>
    <polygon class="cls-10" points="135.8 77.7 132.2 77.7 132.2 78.6 135.8 78.6 135.8 77.7 135.8 77.7"/>
    <path class="cls-12" d="M131.1,76.4a1.8,1.8,0,1,0,1.8,1.8,1.8,1.8,0,0,0-1.8-1.8Z"/>
    <polygon class="cls-10" points="135.8 81.9 132.2 81.9 132.2 82.8 135.8 82.8 135.8 81.9 135.8 81.9"/>
    <path class="cls-12" d="M131.1,80.6a1.8,1.8,0,1,0,1.8,1.8,1.8,1.8,0,0,0-1.8-1.8Z"/>
    <polygon class="cls-10" points="139.3 77.7 142.9 77.7 142.9 78.6 139.3 78.6 139.3 77.7 139.3 77.7"/>
    <path class="cls-12" d="M144,76.4a1.8,1.8,0,1,1-1.8,1.8,1.8,1.8,0,0,1,1.8-1.8Z"/>
    <polygon class="cls-10" points="139.3 81.9 142.9 81.9 142.9 82.8 139.3 82.8 139.3 81.9 139.3 81.9"/>
    <path class="cls-12" d="M144,80.6a1.8,1.8,0,1,1-1.8,1.8,1.8,1.8,0,0,1,1.8-1.8Z"/>
    <path class="cls-5" d="M137.6,101.8a9.3,9.3,0,1,0,9.3,9.3,9.3,9.3,0,0,0-9.3-9.3Z"/>
    <polygon class="cls-12" points="138.7 82.4 136.4 82.4 136.4 107.2 138.7 107.2 138.7 82.4 138.7 82.4"/>
    <path class="cls-12" d="M137.6,106.5a4.6,4.6,0,1,0,4.6,4.6,4.6,4.6,0,0,0-4.6-4.6Z"/>
    <path class="cls-31" d="M137.6,108.5a2.6,2.6,0,1,0,2.6,2.6,2.6,2.6,0,0,0-2.6-2.6Z"/>
    <path class="cls-8" d="M137.6,75.4h0a3.3,3.3,0,0,0-3.3,3.3v3.3a3.3,3.3,0,0,0,3.3,3.3h0a3.3,3.3,0,0,0,3.3-3.3V78.6a3.3,3.3,0,0,0-3.3-3.3Z"/>
    <polygon class="cls-12" points="140.5 124.4 137.6 120.3 134.6 124.4 140.5 124.4 140.5 124.4"/>
    <polygon class="cls-5" points="174.6 74.2 125.6 74.2 125.6 25.1 174.6 25.1 174.6 74.2 174.6 74.2"/>
    <path class="cls-12" d="M139.6,50.5h7a8,8,0,0,1,8,8v5.1a8,8,0,0,1-8,8h-7a8,8,0,0,1-8-8V58.5a8,8,0,0,1,8-8Z"/>
    <path class="cls-6" d="M139.6,52.2h7a6.3,6.3,0,0,1,6.3,6.3v5.1a6.3,6.3,0,0,1-6.3,6.3h-7a6.3,6.3,0,0,1-6.3-6.3V58.5a6.3,6.3,0,0,1,6.3-6.3Z"/>
    <path class="cls-1" d="M143.1,54.3a6.7,6.7,0,1,1-6.7,6.7,6.7,6.7,0,0,1,6.7-6.7Z"/>
    <path class="cls-4" d="M143.1,58.8a2.3,2.3,0,1,1-2.3,2.3,2.3,2.3,0,0,1,2.3-2.3Z"/>
    <path class="cls-1" d="M143.1,60.7a.3.3,0,1,1-.3.3.3.3,0,0,1,.3-.3Z"/>
    <path class="cls-9" d="M144,56.1h-.2a.2.2,0,0,0,.1.2,4.7,4.7,0,0,1,3.8,3.8h.2a.2.2,0,0,0,.1-.2,5,5,0,0,0-4.1-4.1Z"/>
    <path class="cls-4" d="M153.6,30.1a16.5,16.5,0,0,0-17.1,28.3l.5-.8h0a5.7,5.7,0,1,1,5.8-9.7l10.8-17.8Z"/>
    <path class="cls-12" d="M153.9,30.3a10.4,10.4,0,1,1-14.4,2.9,10.4,10.4,0,0,1,14.4-2.9Z"/>
    <path class="cls-6" d="M152.9,31.9A8.6,8.6,0,1,1,141,34.3a8.6,8.6,0,0,1,11.9-2.4Z"/>
    <path class="cls-12" d="M138.3,56.9a2,2,0,1,1-2,2,2,2,0,0,1,2-2Z"/>
    <polygon class="cls-9" points="137.7 59.8 138.9 59.8 138.3 61.9 137.7 59.8 137.7 59.8"/>
    <path class="cls-31" d="M138.3,57.7a1.2,1.2,0,1,1-1.2,1.2,1.2,1.2,0,0,1,1.2-1.2Z"/>
    <path class="cls-8" d="M150,34.1a6,6,0,1,1-8.4,1.7,6,6,0,0,1,8.4-1.7Z"/>
    <path class="cls-8" d="M142.3,43.3a6,6,0,0,1,1.1-9.2,6,6,0,0,1-1.1,9.2Z"/>
    <polygon class="cls-6" points="174.6 38.7 174.6 69.2 142.8 38.7 174.6 38.7 174.6 38.7"/>
    <polygon class="cls-4" points="146.3 42 148.3 38.7 142.8 38.7 146.3 42 146.3 42"/>
    <path class="cls-10" d="M158.6,38.7a10.4,10.4,0,0,1-5.7,9.6l-10-9.6Z"/>
    <path class="cls-5" d="M156.8,38.7a8.6,8.6,0,0,1-5.3,8.2l-8.6-8.2Z"/>
    <path class="cls-6" d="M152.7,38.7a6,6,0,0,1-3.6,6l-6.3-6Z"/>
    <path class="cls-8" d="M145,38.7a6,6,0,0,1-.4,1.7l-1.8-1.7Z"/>
    <polygon class="cls-10" points="170.1 44.5 170.5 44.8 172.2 46.5 170.5 48.2 170.1 48.6 170.5 48.9 172.2 50.6 170.5 52.3 170.1 52.7 170.5 53 172.2 54.7 170.5 56.4 170.1 56.8 170.5 57.1 172.2 58.8 170.5 60.5 170.1 60.9 170.5 61.2 172.5 63.3 172.9 62.9 170.8 60.9 172.5 59.2 172.9 58.8 172.5 58.5 170.8 56.8 172.5 55.1 172.9 54.7 172.5 54.4 170.8 52.7 172.5 51 172.9 50.6 172.5 50.3 170.8 48.6 172.5 46.9 172.9 46.5 172.5 46.2 170.8 44.5 172.9 42.4 172.5 42.1 170.5 44.1 170.1 44.5 170.1 44.5"/>
    <polygon class="cls-9" points="169.7 33.2 169.3 33.5 167.6 35.2 169.3 36.9 169.7 37.3 169.3 37.6 167.6 39.3 169.3 41 169.7 41.4 169.3 41.7 167.6 43.4 169.3 45.2 169.7 45.5 169.3 45.8 167.6 47.5 169.3 49.3 169.7 49.6 169.3 49.9 167.3 52 166.9 51.7 169 49.6 167.3 47.9 166.9 47.5 167.3 47.2 169 45.5 167.3 43.8 166.9 43.4 167.3 43.1 169 41.4 167.3 39.7 166.9 39.3 167.3 39 169 37.3 167.3 35.6 166.9 35.2 167.3 34.9 169 33.2 166.9 31.1 167.3 30.8 169.3 32.8 169.7 33.2 169.7 33.2"/>
    <polygon class="cls-1" points="0 301.4 49 301.4 49 350.5 0 350.5 0 301.4 0 301.4"/>
    <path class="cls-4" d="M3.6,301.4A32.4,32.4,0,0,0,0,305.1v41.7a32.6,32.6,0,0,0,3.6,3.6H45.4a32.6,32.6,0,0,0,3.7-3.6V305.1a32.4,32.4,0,0,0-3.7-3.7Z"/>
    <path class="cls-6" d="M9.7,301.4A28.8,28.8,0,0,0,0,311.2v29.6a28.8,28.8,0,0,0,9.7,9.7H39.3a28.8,28.8,0,0,0,9.7-9.7V311.2a28.8,28.8,0,0,0-9.7-9.7Z"/>
    <path class="cls-8" d="M19.3,301.4A25.1,25.1,0,0,0,0,320.7v10.5a25.1,25.1,0,0,0,19.3,19.3H29.8A25.1,25.1,0,0,0,49,331.2V320.7a25.1,25.1,0,0,0-19.3-19.3Z"/>
    <path class="cls-8" d="M24.5,304.4A21.5,21.5,0,1,0,46,326a21.5,21.5,0,0,0-21.5-21.5Z"/>
    <path class="cls-5" d="M24.5,308A17.9,17.9,0,1,0,42.5,326,17.9,17.9,0,0,0,24.5,308Z"/>
    <path class="cls-12" d="M24.5,311.6A14.4,14.4,0,1,0,38.9,326a14.4,14.4,0,0,0-14.4-14.4Z"/>
    <path class="cls-6" d="M24.5,315.1A10.8,10.8,0,1,0,35.3,326a10.8,10.8,0,0,0-10.8-10.8Z"/>
    <path class="cls-5" d="M24.5,318.7a7.3,7.3,0,1,0,7.3,7.3,7.3,7.3,0,0,0-7.3-7.3Z"/>
    <path class="cls-10" d="M24.5,322a3.9,3.9,0,1,0,3.9,3.9,3.9,3.9,0,0,0-3.9-3.9Z"/>
    <polygon class="cls-9" points="14.8 182.5 59.3 182.5 59.3 183.1 14.8 183.1 14.8 182.5 14.8 182.5"/>
    <polygon class="cls-9" points="14.8 186 59.3 186 59.3 186.6 14.8 186.6 14.8 186 14.8 186"/>
    <polygon class="cls-9" points="14.8 189.5 59.3 189.5 59.3 190.1 14.8 190.1 14.8 189.5 14.8 189.5"/>
    <polygon class="cls-9" points="14.8 193 59.3 193 59.3 193.6 14.8 193.6 14.8 193 14.8 193"/>
    <path class="cls-1" d="M51.7,187.9c-1.1,0-1.5-1-1.4-2.1a3,3,0,0,1,5.7-.5c1.5,3-2.9,7.2-6,8.7v-.2c2.2-1.4,5.1-4.2,4.7-7.1s-1.5-3.1-3.6-1.4c-.5.4-.5,1,0,.7s2.7,1.7.6,1.7Zm5.6-.3a.6.6,0,1,1-.6.6.6.6,0,0,1,.6-.6Zm-.1-3.2a.6.6,0,1,1-.6.6.6.6,0,0,1,.6-.6Z"/>
    <path class="cls-1" d="M32.3,192.6v.2a2.3,2.3,0,0,1-1,1.7c-.9.7-2,.7-2.5.1s-.1-1.7.8-2.3a2,2,0,0,1,2.2-.3c0-.7,0-9.1,0-9.1s0-2.6,0-4h.4v.2a4.7,4.7,0,0,0,.6,1.9,16.7,16.7,0,0,1,1.8,2.6,4.2,4.2,0,0,1-.1,3.6l.2.3a4.5,4.5,0,0,1-.9,4.8,6.6,6.6,0,0,0,.9-2.8,3.2,3.2,0,0,0-.3-2,3.2,3.2,0,0,0-2.1-1.4h0v6.4Zm.6-7.7c.4.6,1,1.2,1.5,2,.7-2,.2-4.1-2.2-4.7a4.7,4.7,0,0,0,.6,2.7Z"/>
    <path class="cls-1" d="M40.1,188.5v.2a2.4,2.4,0,0,1-1.1,1.7c-1,.7-2.1.7-2.6,0s-.1-1.8.9-2.4a2.1,2.1,0,0,1,2.3-.3c.1-3.2.1-6.3.2-9.5h.4v.2a4.9,4.9,0,0,0,.6,2,17.3,17.3,0,0,1,1.8,2.7,4.7,4.7,0,0,1-1.1,5,6.9,6.9,0,0,0,1-2.9,2.9,2.9,0,0,0-2.4-3.5v6.7Z"/>
    <path class="cls-1" d="M23.2,193.5H23a4.6,4.6,0,0,1-4.6-3.7c-.5-2.9,1.9-5.2,4.1-6.6V183h0c-.1-2.1.1-4,1.7-5.5a1,1,0,0,1,.8-.3c.5,0,.8.5,1,.9a5.8,5.8,0,0,1-2.6,6.8l.2,2.4a3.1,3.1,0,0,1,3,3.1,3,3,0,0,1-2.6,3.1l.2,2.5a2.4,2.4,0,0,1-4.8.4v-.2a1.5,1.5,0,1,1,1.5,1.5h.1l1,.2a1.7,1.7,0,0,0,1.6-1.9l-.2-2.5Zm-.5-6.2-.2-2c-1.9,1.2-4.7,3.2-3.2,5.8a4.1,4.1,0,0,0,3.8,1.9l-.3-4a2,2,0,0,0-1.3,1.9,2,2,0,0,0,.2.9v.2h-.2l-.5-.3a2.3,2.3,0,0,1-.2-3.1,2.8,2.8,0,0,1,1.7-1.1Zm.8,1.5.3,4,.6-.2a2,2,0,0,0-.9-3.7Zm-.5-6h.1a5,5,0,0,0,2.4-2.4A1.1,1.1,0,0,0,25,179a1.1,1.1,0,0,0-1.3.5,5.8,5.8,0,0,0-.7,3.2Z"/>
    <path class="cls-1" d="M48.1,186.7A2.4,2.4,0,0,0,47,185c-1-.7-2.1-.7-2.6-.1s-.1,1.7.9,2.4a2.1,2.1,0,0,0,2.3.3c0,3.2,0,6.3,0,9.5h.4v-10h0v-.5Z"/>
    <polygon class="cls-9" points="74.2 25.1 25.1 25.1 25.1 49 74.2 49 74.2 25.1 74.2 25.1"/>
    <polygon class="cls-31" points="99.3 0 75.4 0 75.4 23.9 99.3 23.9 99.3 0 99.3 0"/>
    <polygon class="cls-4" points="124.4 0 100.5 0 100.5 74.2 124.4 74.2 124.4 0 124.4 0"/>
    <polygon class="cls-5" points="23.9 0 0 0 0 49 23.9 49 23.9 0 23.9 0"/>
    <polygon class="cls-3" points="99.3 25.1 75.4 25.1 75.4 74.2 99.3 74.2 99.3 25.1 99.3 25.1"/>
    <polygon class="cls-4" points="199.8 25.1 175.8 25.1 175.8 74.2 199.8 74.2 199.8 25.1 199.8 25.1"/>
    <polygon class="cls-4" points="125.6 0 199.8 0 199.8 23.9 125.6 23.9 125.6 0 125.6 0"/>
    <path class="cls-9" d="M144.2,4.9l1-.2h1.6l1,.2,1-.2h1.6A2.4,2.4,0,0,1,152.6,7a3.8,3.8,0,0,1,5,.2l.9.3c.3,0,.8,0,1-.2a5.2,5.2,0,0,1,3.9-2.1h2.9a1.6,1.6,0,0,0,1-.4,8.4,8.4,0,0,1,14,1.3h0a5.1,5.1,0,0,1,5,.3l3-1.2a7.5,7.5,0,0,1,4.5-.5,5.1,5.1,0,0,1,3.2,2.2,6,6,0,0,1,0,6.5,5.1,5.1,0,0,1-3.2,2.2,7.5,7.5,0,0,1-4.5-.6l-3-1.2a5.1,5.1,0,0,1-5,.3h0a8.4,8.4,0,0,1-14,1.2,1.6,1.6,0,0,0-1-.4h-2.9a5.2,5.2,0,0,1-3.9-2.1c-.2-.2-.7-.2-1-.2l-.9.3a3.8,3.8,0,0,1-2.6,1l-1.1-.2a7.5,7.5,0,0,1-7.4,8.5h-4.2a7.5,7.5,0,0,1-7.5-7.5,7.4,7.4,0,0,1,.3-1.9h-2a3.5,3.5,0,1,1,0-5.5h2.8V7.1a2.4,2.4,0,0,1,2.4-2.4h1.6l1,.2,1-.2h1.6l1,.2Zm-1.9,7.9a2,2,0,1,0,0,3.9h4.2a2,2,0,1,0,0-3.9Z"/>
    <path class="cls-10" d="M186.3,7.6l3.5-1.5a6.5,6.5,0,0,1,3.9-.5,4.2,4.2,0,0,1,2.6,1.8,5.1,5.1,0,0,1,0,5.4,4.2,4.2,0,0,1-2.6,1.8,6.5,6.5,0,0,1-3.9-.5l-3.5-1.5c-1.2,1.2-2.9,1.1-4.5.5l-.9-.4a7.4,7.4,0,0,1-12.8,1.8,2.6,2.6,0,0,0-1.7-.7h-2.9a4.3,4.3,0,0,1-3.2-1.8c-.7-.8-2.4-.6-3.2,0a2.9,2.9,0,0,1-4.2-.3h-.5a6.5,6.5,0,0,1-5.8,9.4h-4.2a6.5,6.5,0,0,1-5.8-9.4h-3.8a2.6,2.6,0,1,1,0-3.6h4.6a1.5,1.5,0,0,1,1-2.6h1.6a1.5,1.5,0,0,1,1,.4,1.5,1.5,0,0,1,1-.4h1.6a1.5,1.5,0,0,1,1,.4,1.5,1.5,0,0,1,1-.4h1.6a1.5,1.5,0,0,1,1,.4,1.5,1.5,0,0,1,1-.4h1.6a1.5,1.5,0,0,1,1,2.6h1.6A2.9,2.9,0,0,1,157,8c.8.6,2.5.8,3.2,0a4.3,4.3,0,0,1,3.2-1.8h2.9a2.6,2.6,0,0,0,1.7-.7,7.4,7.4,0,0,1,12.8,1.9l.9-.4c1.5-.6,3.3-.7,4.5.5Zm-44,4.2a2.9,2.9,0,1,0,0,5.8h4.2a2.9,2.9,0,1,0,0-5.8Z"/>
    <path class="cls-8" d="M138.2,6.6h1.6a.5.5,0,0,1,.5.5h0a.5.5,0,0,1-.5.5h-1.6a.5.5,0,0,1-.5-.5h0a.5.5,0,0,1,.5-.5Z"/>
    <path class="cls-8" d="M141.6,6.6h1.6a.5.5,0,0,1,.5.5h0a.5.5,0,0,1-.5.5h-1.6a.5.5,0,0,1-.5-.5h0a.5.5,0,0,1,.5-.5Z"/>
    <path class="cls-8" d="M145.1,6.6h1.6a.5.5,0,0,1,.5.5h0a.5.5,0,0,1-.5.5h-1.6a.5.5,0,0,1-.5-.5h0a.5.5,0,0,1,.5-.5Z"/>
    <path class="cls-8" d="M148.6,6.6h1.6a.5.5,0,0,1,.5.5h0a.5.5,0,0,1-.5.5h-1.6a.5.5,0,0,1-.5-.5h0a.5.5,0,0,1,.5-.5Z"/>
    <polygon class="cls-9" points="138.6 7.6 139.3 7.6 139.3 9.5 138.6 9.5 138.6 7.6 138.6 7.6"/>
    <polygon class="cls-9" points="142 7.6 142.8 7.7 142.8 9.5 142 9.5 142 7.6 142 7.6"/>
    <polygon class="cls-9" points="145.5 7.7 146.3 7.7 146.3 9.5 145.5 9.5 145.5 7.7 145.5 7.7"/>
    <polygon class="cls-9" points="149 7.7 149.8 7.7 149.7 9.5 149 9.5 149 7.7 149 7.7"/>
    <path class="cls-3" d="M150.4,10.9a5.5,5.5,0,0,1-4,9.4h-4.2a5.5,5.5,0,0,1-3.9-9.5h-7.5V9.2h24.5v1.7Zm-8.1,0a3.9,3.9,0,0,0,0,7.8h4.2a3.9,3.9,0,0,0,0-7.8Z"/>
    <path class="cls-4" d="M153.1,10A1.9,1.9,0,1,1,155,12a1.9,1.9,0,0,1-1.9-1.9Z"/>
    <path class="cls-3" d="M153.8,10a1.2,1.2,0,1,1,1.2,1.2,1.2,1.2,0,0,1-1.2-1.2Z"/>
    <path class="cls-4" d="M160.9,8.6a3.4,3.4,0,0,1,2.5-1.4h2.9a3.6,3.6,0,0,0,2.8-1.4v8.5a3.6,3.6,0,0,0-2.8-1.4h-2.9a3.4,3.4,0,0,1-2.5-1.5c-1.1-1.2-3.5-1.1-4.7,0v-3c1.2,1.1,3.6,1.3,4.7.1Z"/>
    <path class="cls-8" d="M130.8,8.4a1.6,1.6,0,1,0,1.6,1.6,1.6,1.6,0,0,0-1.6-1.6Z"/>
    <path class="cls-28" d="M174,3.6a6.5,6.5,0,1,1-6.5,6.5A6.5,6.5,0,0,1,174,3.6Z"/>
    <path class="cls-3" d="M172.5,6a4,4,0,1,1-4.1,4,4,4,0,0,1,4.1-4Z"/>
    <path class="cls-5" d="M170.8,8.4a1.7,1.7,0,1,1-1.7,1.7,1.7,1.7,0,0,1,1.7-1.7Z"/>
    <path class="cls-8" d="M182.2,12.3,177,10.1l5.2-2.1c5.5-2.3,5.5,6.6,0,4.3Z"/>
    <path class="cls-5" d="M190.2,13.2l-7.5-3.1L190.2,7c8-3.3,7.9,9.6,0,6.2Z"/>
    <path class="cls-31" d="M186,8.7a2.9,2.9,0,0,1,0,2.7l-3.3-1.4L186,8.7Z"/>
    <path class="cls-4" d="M142.3,18.6h4.2a3.9,3.9,0,0,0,3.9-3.9h0a3.9,3.9,0,0,0-3.9-3.9h-4.2a3.9,3.9,0,0,0-3.9,3.9h0a3.9,3.9,0,0,0,3.9,3.9Z"/>
    <path class="cls-4" d="M142.3,16.7h4.2a2,2,0,1,0,0-3.9h-4.2a2,2,0,1,0,0,3.9Z"/>
    <path class="cls-10" d="M146.4,16a1.2,1.2,0,1,1,1.2-1.2,1.2,1.2,0,0,1-1.2,1.2Z"/>
    <path class="cls-10" d="M142.3,16a1.2,1.2,0,1,1,1.2-1.2,1.2,1.2,0,0,1-1.2,1.2Z"/>
    <path class="cls-10" d="M30.5,42.7V31.5a3.4,3.4,0,0,1,3.4-3.4h0a3.4,3.4,0,0,1,3.4,3.4V42.7a3.4,3.4,0,0,1-3.4,3.4h0a3.4,3.4,0,0,1-3.4-3.4Z"/>
    <path class="cls-10" d="M38.4,42.7V31.5a3.4,3.4,0,0,1,3.4-3.4h0a3.4,3.4,0,0,1,3.4,3.4V42.7a3.4,3.4,0,0,1-3.4,3.4h0a3.4,3.4,0,0,1-3.4-3.4Z"/>
    <path class="cls-10" d="M46.2,42.7V31.5a3.4,3.4,0,0,1,3.4-3.4h0A3.4,3.4,0,0,1,53,31.5V42.7a3.4,3.4,0,0,1-3.4,3.4h0a3.4,3.4,0,0,1-3.4-3.4Z"/>
    <path class="cls-10" d="M54.1,42.7V31.5a3.4,3.4,0,0,1,3.4-3.4h0a3.4,3.4,0,0,1,3.4,3.4V42.7a3.4,3.4,0,0,1-3.4,3.4h0a3.4,3.4,0,0,1-3.4-3.4Z"/>
    <path class="cls-10" d="M62,42.7V31.5a3.4,3.4,0,0,1,3.4-3.4h0a3.4,3.4,0,0,1,3.4,3.4V42.7a3.4,3.4,0,0,1-3.4,3.4h0A3.4,3.4,0,0,1,62,42.7Z"/>
    <path class="cls-1" d="M35.4,37.3V30.9a2.4,2.4,0,0,1,2.4-2.4h0a2.4,2.4,0,0,1,2.4,2.4v6.4a2.4,2.4,0,0,1-2.4,2.4h0a2.4,2.4,0,0,1-2.4-2.4Z"/>
    <path class="cls-1" d="M43.3,37.3V30.9a2.4,2.4,0,0,1,2.4-2.4h0a2.4,2.4,0,0,1,2.4,2.4v6.4a2.4,2.4,0,0,1-2.4,2.4h0a2.4,2.4,0,0,1-2.4-2.4Z"/>
    <path class="cls-1" d="M59,37.3V30.9a2.4,2.4,0,0,1,2.4-2.4h0a2.4,2.4,0,0,1,2.4,2.4v6.4a2.4,2.4,0,0,1-2.4,2.4h0A2.4,2.4,0,0,1,59,37.3Z"/>
    <path class="cls-1" d="M51.1,37.3V30.9a2.4,2.4,0,0,1,2.4-2.4h0A2.4,2.4,0,0,1,56,30.9v6.4a2.4,2.4,0,0,1-2.4,2.4h0a2.4,2.4,0,0,1-2.4-2.4Z"/>
    <path class="cls-6" d="M79.3,6.3a3.9,3.9,0,0,1,5.5,0l2.5,2.5,2.5-2.5a3.9,3.9,0,0,1,5.5,5.5l-8,8-8-8a3.9,3.9,0,0,1,0-5.5Z"/>
    <path class="cls-6" d="M84.5,29.2a7.1,7.1,0,1,1-7.1,7.1,7.1,7.1,0,0,1,7.1-7.1Z"/>
    <path class="cls-3" d="M85.1,37H96.2l1.1,11.5c.3,3.4-2.6,6.3-6,6.6V65.1l4.8.8v.4H85.2V66l4.8-.8V55.1c-3.4-.3-6.3-3.2-6-6.6L85.1,37Z"/>
    <path class="cls-10" d="M91.3,62v3.2l4.8.8v.4H85.2V66l4.8-.8V61.9h1.3Z"/>
    <path class="cls-9" d="M87.1,51.9a2.5,2.5,0,0,1-1.8-2.5l.8-11h1.1V51.9Z"/>
    <path class="cls-9" d="M91.6,37a7.1,7.1,0,0,1-7.1,6.5l.6-6.5Z"/>
    <path class="cls-9" d="M80,69.7,82.4,72h0a.3.3,0,0,0,.4,0h0L85,69.9,87.1,72h0a.3.3,0,0,0,.4,0h0l2.2-2.2L91.8,72h0a.3.3,0,0,0,.4,0h0l2.4-2.4a.3.3,0,0,0,0-.4h0a.3.3,0,0,0-.4,0L92,71.4l-2.2-2.2h-.4l-2.2,2.2-2.2-2.2h0a.3.3,0,0,0-.4,0h0l-2.2,2.2-2.2-2.2a.3.3,0,0,0-.4,0h0a.3.3,0,0,0,0,.4Z"/>
    <path class="cls-5" d="M100.5.7h.9a9,9,0,0,1,6.7,3,7.5,7.5,0,0,1,4.9,8.4,7.7,7.7,0,0,1,0,2.8,7.5,7.5,0,0,1-2.6,7.2v6.4a11.1,11.1,0,0,1,5,17,17.5,17.5,0,0,1-14,28.1h-.9V.7Z"/>
    <path class="cls-16" d="M100.5,4.5h.9a5.2,5.2,0,0,1,4.5,2.6,3.7,3.7,0,0,1,3.2,5,3.7,3.7,0,0,1,0,2.8,3.7,3.7,0,0,1-2.5,4.9V31.5a7.3,7.3,0,0,1,3.3,13.8,13.7,13.7,0,0,1-8.5,24.4h-.9V4.5Z"/>
    <path class="cls-2" d="M103.9,35.2h-1V9.6a1.5,1.5,0,0,0-1.5-1.5h0a1.5,1.5,0,0,0-.9.3V66h.9a10,10,0,0,0,4.8-18.8,2.5,2.5,0,0,1,.8-4.7,3.7,3.7,0,0,0-.6-7.3Z"/>
    <polygon class="cls-4" points="102.9 10.4 105.1 10.4 105.1 11 102.9 11 102.9 10.4 102.9 10.4"/>
    <path class="cls-2" d="M105.7,9.7a1,1,0,1,1-1,1,1,1,0,0,1,1-1Z"/>
    <polygon class="cls-4" points="102.9 13.2 105.1 13.2 105.1 13.8 102.9 13.8 102.9 13.2 102.9 13.2"/>
    <path class="cls-2" d="M105.7,12.5a1,1,0,1,1-1,1,1,1,0,0,1,1-1Z"/>
    <polygon class="cls-4" points="102.9 16 105.1 16 105.1 16.5 102.9 16.5 102.9 16 102.9 16"/>
    <path class="cls-2" d="M105.7,15.3a1,1,0,1,1-1,1,1,1,0,0,1,1-1Z"/>
    <path class="cls-4" d="M101.4,51.7a4.6,4.6,0,0,1,0,9.3h-.9V51.8Z"/>
    <path class="cls-1" d="M101.4,53.9a2.5,2.5,0,0,1,0,5l-.9-.2V54l.9-.2Z"/>
    <path class="cls-4" d="M101.4,67h-.9V66h.9a10,10,0,0,0,4.8-18.8,2.5,2.5,0,0,1,.8-4.7,3.7,3.7,0,0,0-.6-7.3h-3.5v-1h3.5a4.7,4.7,0,0,1,.8,9.3,1.5,1.5,0,0,0-.4,2.8A11,11,0,0,1,101.4,67Z"/>
    <path class="cls-4" d="M101.4,7.1a2.5,2.5,0,0,1,2.5,2.5V35.2h-1V9.6a1.5,1.5,0,0,0-1.5-1.5h0a1.5,1.5,0,0,0-.9.3V7.3l.9-.2Z"/>
    <path class="cls-10" d="M108.5,3.1a8.1,8.1,0,0,1,5.2,9,8.1,8.1,0,0,1,0,2.8,8.1,8.1,0,0,1-2.6,7.5V28a11.8,11.8,0,0,1,5.1,17.4,18.1,18.1,0,0,1-14.7,28.7h-.9v-.6h.9a17.5,17.5,0,0,0,14-28.1,11.1,11.1,0,0,0-5-17V22.1a7.5,7.5,0,0,0,2.6-7.2,7.7,7.7,0,0,0,0-2.8,7.5,7.5,0,0,0-4.9-8.4,9,9,0,0,0-6.7-3h-.9V0h.9a9.6,9.6,0,0,1,7.1,3.1Z"/>
    <path class="cls-4" d="M110.7,45.4a14.2,14.2,0,0,1-9.3,24.9h-.9v-.5h.9a13.7,13.7,0,0,0,8.5-24.4,7.3,7.3,0,0,0-3.3-13.8V19.8a3.7,3.7,0,0,0,2.5-4.9,3.7,3.7,0,0,0,0-2.8,3.7,3.7,0,0,0-3.2-5,5.2,5.2,0,0,0-4.5-2.6h-.9V4h.9a5.7,5.7,0,0,1,4.8,2.7,4.1,4.1,0,0,1,3.4,5.5,4.1,4.1,0,0,1,0,2.8,4.1,4.1,0,0,1-2.5,5.3V31.1a7.8,7.8,0,0,1,3.7,14.3Z"/>
    <path class="cls-23" d="M6.6,36.2H9.3v5.9a8.2,8.2,0,0,0-2.7-6Z"/>
    <path class="cls-23" d="M13.2,36.2H10.6v5.9a8.2,8.2,0,0,1,2.7-6Z"/>
    <path class="cls-23" d="M12.8,47.3H10.6V45.1a2.2,2.2,0,0,0,2.2,2.2Z"/>
    <polygon class="cls-23" points="10.6 36.5 9.3 36.5 9.3 47.3 10.6 47.3 10.6 36.5 10.6 36.5"/>
    <path class="cls-23" d="M7.1,47.3H9.3V45.1a2.2,2.2,0,0,1-2.2,2.2Z"/>
    <path class="cls-23" d="M14.5,47.3H5.3a.9.9,0,0,0-.9.9V49H15.4v-.9a.9.9,0,0,0-.9-.9Z"/>
    <path class="cls-23" d="M3.1,17.4,1.2,28c-.9,4.7,3.9,8.8,8.8,8.8s9.6-4,8.8-8.8L16.8,17.4Z"/>
    <path class="cls-2" d="M15.6,17.4l1.9,10.8a5,5,0,0,1-.2,2.5c-1,3-4.4,4.9-7.4,4.9l-1.6-.2c-3.3-.7-6.7-3.6-6-7.2l2-10.8Z"/>
    <path class="cls-23" d="M11,19.6c.6-7.1,5-11.9,11.1-15.2l.4-.2.4.7-.4.2c-5.8,3.2-10.1,7.7-10.7,14.5v.4H11v-.4Z"/>
    <path class="cls-3" d="M11.4,19.7a3.6,3.6,0,1,1-3.6,3.6,3.6,3.6,0,0,1,3.6-3.6Z"/>
    <path class="cls-3" d="M18.2,13.6a5.7,5.7,0,0,1,2.7,3.3,6,6,0,0,1-6.9-4,5.7,5.7,0,0,1,4.2.7Z"/>
    <path class="cls-3" d="M8.1,16.3a9.2,9.2,0,0,1-6.8-.5,9.2,9.2,0,0,1,5.4-4.2,9.2,9.2,0,0,1,6.8.5,9.2,9.2,0,0,1-5.4,4.2Z"/>
    <polygon class="cls-1" points="25.1 50.2 74.2 50.2 74.2 74.2 25.1 74.2 25.1 50.2 25.1 50.2"/>
    <polygon class="cls-8" points="0 50.2 23.9 50.2 23.9 74.2 0 74.2 0 50.2 0 50.2"/>
    <path class="cls-10" d="M4.1,65.4v-3a7.8,7.8,0,1,1,15.7,0v3h.7V61.1a8.6,8.6,0,1,0-17.1,0v4.3Z"/>
    <path class="cls-3" d="M19.8,70a3.5,3.5,0,0,0,0-6.8V70Z"/>
    <path class="cls-3" d="M4.1,70a3.5,3.5,0,0,1,0-6.8V70Z"/>
    <path class="cls-6" d="M17,61.4h0a2.1,2.1,0,0,1,2.1,2.1v6.3A2.1,2.1,0,0,1,17,71.8h0a2.1,2.1,0,0,1-2.1-2.1V63.5A2.1,2.1,0,0,1,17,61.4Z"/>
    <path class="cls-6" d="M6.9,61.4h0A2.1,2.1,0,0,1,9,63.5v6.3a2.1,2.1,0,0,1-2.1,2.1h0a2.1,2.1,0,0,1-2.1-2.1V63.5a2.1,2.1,0,0,1,2.1-2.1Z"/>
    <path class="cls-46" d="M11.5,64.3v4.6a.4.4,0,0,0,.4.4h0a.4.4,0,0,0,.4-.4V64.3a.4.4,0,0,0-.4-.4h0a.4.4,0,0,0-.4.4Z"/>
    <path class="cls-46" d="M13.3,64.3v4.6a.4.4,0,0,0,.4.4h0a.4.4,0,0,0,.4-.4V64.3a.4.4,0,0,0-.4-.4h0a.4.4,0,0,0-.4.4Z"/>
    <path class="cls-46" d="M9.8,64.3v4.6a.4.4,0,0,0,.4.4h0a.4.4,0,0,0,.4-.4V64.3a.4.4,0,0,0-.4-.4h0a.4.4,0,0,0-.4.4Z"/>
    <path class="cls-9" d="M69,71.2c4.2-.5,4.7-10-2.6-10H58.9l-.2.3a7.4,7.4,0,0,1,4.5,1.2c2,1.3,2.5,3.1,2.5,5.4A3.1,3.1,0,0,0,69,71.2Z"/>
    <path class="cls-6" d="M60.8,53.2c3.5.4,4,8.4-2.2,8.3H52.4l-.2-.3a6.1,6.1,0,0,0,3.8-1c1.7-1.1,2.1-2.6,2.1-4.5a2.6,2.6,0,0,1,2.8-2.6Z"/>
    <path class="cls-6" d="M54,68.7c-.3-2.2-2-6.8-7.2-6.7V60.7c5.2,0,6.9-4.6,7.2-6.7V68.7Z"/>
    <path class="cls-5" d="M35.8,61.7l9.4.2a2.3,2.3,0,0,1,1.3,2.1h0a2.3,2.3,0,0,1-2.3,2.3H36a2.3,2.3,0,0,1-2.3-2.3h0a2.3,2.3,0,0,1,2.1-2.3ZM33,63.9h0a3,3,0,0,0,3,3h8.2a3,3,0,0,0,3-3h0a3,3,0,0,0-.8-2h.1V60.7L33.5,61v.6h.7A3,3,0,0,0,33,63.9Z"/>
    <polygon class="cls-5" points="34.1 61.6 34.1 61 28 61 28 61.6 34.1 61.6 34.1 61.6"/>
    <path class="cls-7" d="M45.3,59.6a.8.8,0,1,0-.8.8.8.8,0,0,0,.8-.8Z"/>
    <path class="cls-7" d="M42.6,59.6a.8.8,0,1,0-.8.8.8.8,0,0,0,.8-.8Z"/>
    <path class="cls-7" d="M39.8,59.6a.8.8,0,1,0-.8.8.8.8,0,0,0,.8-.8Z"/>
    <path class="cls-7" d="M37.1,59.6a.8.8,0,1,0-.8.8.8.8,0,0,0,.8-.8Z"/>
    <path class="cls-7" d="M48.4,64.3h0a2.6,2.6,0,0,0-2.6-2.6H34.6a2.6,2.6,0,0,0-2.6,2.6h0a2.6,2.6,0,0,0,2.6,2.6H45.8a2.6,2.6,0,0,0,2.6-2.6Z"/>
    <path class="cls-47" d="M45.5,64.2a2,2,0,1,0-2,2,2,2,0,0,0,2-2Z"/>
    <path class="cls-6" d="M42.2,64.2a2,2,0,1,0-2,2,2,2,0,0,0,2-2Z"/>
    <path class="cls-47" d="M39,64.2a2,2,0,1,0-2,2,2,2,0,0,0,2-2Z"/>
    <path class="cls-29" d="M44.1,64.2h0A1.2,1.2,0,0,0,42.9,63H37.5a1.2,1.2,0,0,0-1.2,1.2h0a1.2,1.2,0,0,0,1.2,1.2h5.4a1.2,1.2,0,0,0,1.2-1.2Z"/>
    <path class="cls-7" d="M38.6,63a2,2,0,0,0,0,2.4,2,2,0,0,0,0-2.4Z"/>
    <path class="cls-7" d="M42.2,64.2a2,2,0,0,0-.4-1.2,2,2,0,0,0,0,2.4,2,2,0,0,0,.4-1.2Z"/>
    <path class="cls-7" d="M28,60.4a.8.8,0,1,0,.8.8.8.8,0,0,0-.8-.8Z"/>
    <polygon class="cls-9" points="187.3 39.1 188.3 39.1 188.3 74.2 187.3 74.2 187.3 39.1 187.3 39.1"/>
    <path class="cls-6" d="M196.8,53.5a5.3,5.3,0,0,1-8,4.6,5.3,5.3,0,0,1,8-4.6Z"/>
    <path class="cls-6" d="M178.8,53.5a5.3,5.3,0,0,0,8,4.6,5.3,5.3,0,0,0-8-4.6Z"/>
    <path class="cls-3" d="M181.5,33.7h2.3V31.4a4,4,0,0,1,4-4h0a4,4,0,0,1,4,4v2.3h2.3a4,4,0,0,1,4,4h0a4,4,0,0,1-4,4h-2.3V44a4,4,0,0,1-4,4h0a4,4,0,0,1-4-4V41.7h-2.3a4,4,0,0,1-4-4h0a4,4,0,0,1,4-4Z"/>
    <path class="cls-12" d="M184.3,37.7a3.5,3.5,0,1,1,3.5,3.5,3.5,3.5,0,0,1-3.5-3.5Z"/>
    <polygon class="cls-7" points="74.2 75.4 74.2 98.8 25.4 98.8 25.4 75.4 74.2 75.4 74.2 75.4"/>
    <polygon class="cls-6" points="34.2 98.8 34.2 89.9 25.4 89.9 25.4 98.8 34.2 98.8 34.2 98.8"/>
    <path class="cls-12" d="M67,89.7H47.8c-2.4,0-.8-3.4-5.5-3.4H40.6a7.9,7.9,0,1,0,0,9.2h1.7c4.7,0,3.1-3.4,5.5-3.4H67V89.7Z"/>
    <path class="cls-6" d="M47.8,89.7c-2.4,0-.8-3.4-5.5-3.4H40.6a7.9,7.9,0,0,0-3.5-2.7H32.7v6.1Z"/>
    <path class="cls-6" d="M43.1,89.9a8.9,8.9,0,1,0-8.9,8.9,8.9,8.9,0,0,0,8.9-8.9Z"/>
    <path class="cls-12" d="M38.6,89.9a4.4,4.4,0,1,0-4.4,4.4,4.4,4.4,0,0,0,4.4-4.4Z"/>
    <path class="cls-28" d="M36.8,89.9a2.6,2.6,0,1,0-2.6,2.6,2.6,2.6,0,0,0,2.6-2.6Z"/>
    <path class="cls-6" d="M65.3,88.4h5.8a2.5,2.5,0,0,1,2.5,2.5h0a2.5,2.5,0,0,1-2.5,2.5H65.3a2.5,2.5,0,0,1-2.5-2.5h0a2.5,2.5,0,0,1,2.5-2.5Z"/>
    <polygon class="cls-12" points="65.6 88.4 66.8 88.4 66.8 86.2 65.6 86.2 65.6 88.4 65.6 88.4"/>
    <path class="cls-3" d="M66.2,87.1a1.6,1.6,0,1,0-1.6-1.6,1.6,1.6,0,0,0,1.6,1.6Z"/>
    <polygon class="cls-12" points="69.7 88.4 70.8 88.4 70.8 86.2 69.7 86.2 69.7 88.4 69.7 88.4"/>
    <path class="cls-3" d="M70.3,87.1a1.6,1.6,0,1,0-1.6-1.6,1.6,1.6,0,0,0,1.6,1.6Z"/>
    <polygon class="cls-12" points="65.6 93.5 66.8 93.5 66.8 95.6 65.6 95.6 65.6 93.5 65.6 93.5"/>
    <path class="cls-3" d="M66.2,94.7a1.6,1.6,0,1,1-1.6,1.6,1.6,1.6,0,0,1,1.6-1.6Z"/>
    <polygon class="cls-12" points="69.7 93.5 70.8 93.5 70.8 95.6 69.7 95.6 69.7 93.5 69.7 93.5"/>
    <path class="cls-3" d="M70.3,94.7a1.6,1.6,0,1,1-1.6,1.6,1.6,1.6,0,0,1,1.6-1.6Z"/>
    <polygon class="cls-2" points="23.9 75.4 0 75.4 0 124.4 23.9 124.4 23.9 75.4 23.9 75.4"/>
    <polygon class="cls-9" points="25.1 100.5 74.2 100.5 74.2 124.4 25.1 124.4 25.1 100.5 25.1 100.5"/>
    <polygon class="cls-2" points="25.1 23.9 74.2 23.9 74.2 0 25.1 0 25.1 23.9 25.1 23.9"/>
    <polygon class="cls-9" points="47.9 6.9 46.6 6.9 46.6 10.7 47.9 10.7 47.9 6.9 47.9 6.9"/>
    <polygon class="cls-9" points="44 6.9 42.7 6.9 42.7 10.7 44 10.7 44 6.9 44 6.9"/>
    <polygon class="cls-9" points="40 6.9 38.7 6.9 38.7 10.7 40 10.7 40 6.9 40 6.9"/>
    <polygon class="cls-9" points="57 9.6 28.2 9.6 28.2 11 57 11 57 9.6 57 9.6"/>
    <path class="cls-1" d="M49.3,9.6H36.5a5.3,5.3,0,0,0-5.3,5.3h0a5.3,5.3,0,0,0,5.3,5.3H49.3a5.3,5.3,0,0,0,5.3-5.3h0a5.3,5.3,0,0,0-5.3-5.3Z"/>
    <path class="cls-9" d="M49.3,18.6A3.7,3.7,0,1,1,53,14.9a3.7,3.7,0,0,1-3.7,3.7Z"/>
    <path class="cls-9" d="M36.5,18.6a3.7,3.7,0,1,1,3.7-3.7,3.7,3.7,0,0,1-3.7,3.7Z"/>
    <polygon class="cls-3" points="64.2 4.7 53 10.3 64.2 15.8 64.2 4.7 64.2 4.7"/>
    <path class="cls-23" d="M67.6,3.7a6.5,6.5,0,1,0,6.5,6.5,6.5,6.5,0,0,0-6.5-6.5Z"/>
    <path class="cls-1" d="M67.6,6.5a3.8,3.8,0,1,0,3.8,3.8,3.8,3.8,0,0,0-3.8-3.8Z"/>
    <polygon class="cls-10" points="25.1 7.6 30.6 10.3 25.1 13 25.1 7.6 25.1 7.6"/>
    <path class="cls-10" d="M47.3,3.3h0a1.5,1.5,0,0,0-1.5,1.5V6.5A1.5,1.5,0,0,0,47.3,8h0a1.5,1.5,0,0,0,1.5-1.5V4.8a1.5,1.5,0,0,0-1.5-1.5Z"/>
    <path class="cls-10" d="M43.3,3.3h0a1.5,1.5,0,0,0-1.5,1.5V6.5A1.5,1.5,0,0,0,43.3,8h0a1.5,1.5,0,0,0,1.5-1.5V4.8a1.5,1.5,0,0,0-1.5-1.5Z"/>
    <path class="cls-10" d="M39.4,3.3h0a1.5,1.5,0,0,0-1.5,1.5V6.5A1.5,1.5,0,0,0,39.4,8h0a1.5,1.5,0,0,0,1.5-1.5V4.8a1.5,1.5,0,0,0-1.5-1.5Z"/>
    <path class="cls-4" d="M4,112.3a7.9,7.9,0,1,1,7.9,7.9A7.9,7.9,0,0,1,4,112.3Z"/>
    <path class="cls-4" d="M12.8,101.7h.1V84.1c.4-11.1-11.8-6.8-1.9-.6v17.8a.9.9,0,0,0,.9,1,1,1,0,0,0,.9-.6Z"/>
    <path class="cls-3" d="M15.9,108.4a5.6,5.6,0,1,1-8.1,0v-4.3a4,4,0,0,1,8.1,0v4.3Z"/>
    <path class="cls-8" d="M10.9,115.2a3.1,3.1,0,1,1,3.9-2,3.1,3.1,0,0,1-3.9,2Z"/>
    <polygon class="cls-4" points="11.9 109.2 12.4 110.6 13.6 109.6 13.2 111.2 14.7 111 13.6 112 15 112.7 13.4 113 14.3 114.3 12.8 113.7 12.8 115.3 11.9 114 11 115.3 11 113.7 9.5 114.3 10.3 113 8.8 112.7 10.2 112 9.1 111 10.6 111.2 10.2 109.6 11.4 110.6 11.9 109.2 11.9 109.2"/>
    <path class="cls-1" d="M11.4,113.6a1.4,1.4,0,1,1,1.8-.9,1.4,1.4,0,0,1-1.8.9Z"/>
    <path class="cls-4" d="M2.8,107.9a10.2,10.2,0,1,0,18.3,0,.4.4,0,0,0-.7.3,9.4,9.4,0,1,1-17,0,.4.4,0,0,0-.7-.3Z"/>
    <path class="cls-4" d="M8.4,87.7h0a.6.6,0,0,0,.6.6h2.7a.6.6,0,0,0,.6-.6h0a.6.6,0,0,0-.6-.6H9a.6.6,0,0,0-.6.6Z"/>
    <path class="cls-4" d="M8.4,89.5h0A.6.6,0,0,0,9,90h2.7a.6.6,0,0,0,.6-.6h0a.6.6,0,0,0-.6-.6H9a.6.6,0,0,0-.6.6Z"/>
    <path class="cls-4" d="M8.4,91.2h0a.6.6,0,0,0,.6.6h2.7a.6.6,0,0,0,.6-.6h0a.6.6,0,0,0-.6-.6H9a.6.6,0,0,0-.6.6Z"/>
    <path class="cls-8" d="M59.7,117.5c-1.8-2.1-5.3-4.3-12-4.3v-1.6c6.7,0,10.3-2.2,12-4.3v10.1Z"/>
    <path class="cls-12" d="M30.7,115.8a3.8,3.8,0,0,0,3.7,3.7H44.8a3.7,3.7,0,0,0,2.7-6.3h.1v-1.6l-20.8.4v.8h5.3a3.7,3.7,0,0,0-1.4,2.9Zm3.5-2.9,11.8.3a2.9,2.9,0,0,1-1.3,5.5H34.5a2.9,2.9,0,0,1-.2-5.8Z"/>
    <path class="cls-6" d="M46.4,111.6a1,1,0,1,0-1,1,1,1,0,0,0,1-1Z"/>
    <path class="cls-6" d="M42.9,111.6a1,1,0,1,0-1,1,1,1,0,0,0,1-1Z"/>
    <path class="cls-6" d="M39.4,111.6a1,1,0,1,0-1,1,1,1,0,0,0,1-1Z"/>
    <path class="cls-6" d="M36,111.6a1,1,0,1,0-1,1,1,1,0,0,0,1-1Z"/>
    <path class="cls-8" d="M28.4,110.6a1.8,1.8,0,1,1-1.8,1.8,1.8,1.8,0,0,1,1.8-1.8Z"/>
    <path class="cls-4" d="M34.7,113.6h9.9a2.2,2.2,0,0,1,2.2,2.2h0a2.2,2.2,0,0,1-2.2,2.2H34.7a2.2,2.2,0,0,1-2.2-2.2h0a2.2,2.2,0,0,1,2.2-2.2Z"/>
    <path class="cls-23" d="M34.7,113.6a2.2,2.2,0,1,1-2.2,2.2,2.2,2.2,0,0,1,2.2-2.2Z"/>
    <path class="cls-23" d="M44.6,113.6a2.2,2.2,0,1,1-2.2,2.2,2.2,2.2,0,0,1,2.2-2.2Z"/>
    <path class="cls-2" d="M65.2,105a7.5,7.5,0,1,1-7.5,7.5,7.5,7.5,0,0,1,7.5-7.5Z"/>
    <path class="cls-16" d="M63.4,106.7a5.7,5.7,0,1,1-5.7,5.7,5.7,5.7,0,0,1,5.7-5.7Z"/>
    <path class="cls-10" d="M61.3,108.8a3.6,3.6,0,1,1-3.6,3.6,3.6,3.6,0,0,1,3.6-3.6Z"/>
    <path class="cls-9" d="M59.6,110.6a1.8,1.8,0,1,1-1.8,1.8,1.8,1.8,0,0,1,1.8-1.8Z"/>
    <polygon class="cls-3" points="201 75.4 250 75.4 250 124.4 201 124.4 201 75.4 201 75.4"/>
    <polygon class="cls-12" points="215.9 102.6 215.9 86.3 219.4 86.3 219.4 102.6 215.9 102.6 215.9 102.6"/>
    <path class="cls-2" d="M241,121.4h3.6a3.6,3.6,0,0,1,3.4,2.5H241v-2.5Z"/>
    <path class="cls-12" d="M248.4,123.7h-7.9a.3.3,0,0,0-.3.3h0a.3.3,0,0,0,.3.3h7.9a.3.3,0,0,0,.3-.3h0a.3.3,0,0,0-.3-.3Z"/>
    <path class="cls-2" d="M240.6,97h3.6a3.6,3.6,0,0,1,3.4,2.5h-6.9V97Z"/>
    <path class="cls-12" d="M248,99.4h-7.9a.3.3,0,0,0-.3.3h0a.3.3,0,0,0,.3.3H248a.3.3,0,0,0,.3-.3h0a.3.3,0,0,0-.3-.3Z"/>
    <path class="cls-29" d="M233.6,107V97.9H220.5a4.6,4.6,0,0,0-4.6,4.6h0a4.6,4.6,0,0,0,4.6,4.6Z"/>
    <path class="cls-12" d="M204.8,100.1a5.2,5.2,0,1,1,5.2,5.2,5.2,5.2,0,0,1-5.2-5.2Z"/>
    <path class="cls-12" d="M241,123.7v-8.6a1.2,1.2,0,0,0-.3-.8l-7.1-7.1a5,5,0,0,1-1.5-3.6V93.1a6.2,6.2,0,1,1,12.4,0v6.3h-3.9V93.1a2.3,2.3,0,1,0-4.6,0v10.4a1.2,1.2,0,0,0,.4.8l7.1,7.1a5,5,0,0,1,1.5,3.6v8.6Z"/>
    <path class="cls-9" d="M211.7,83l11.5,11.5c1.4,1.4-1.6,2.5,1.3,5.3l1,1a6.7,6.7,0,1,0,5.5-5.5l-1-1c-2.8-2.8-3.9.2-5.3-1.3L213.1,81.5,211.7,83Z"/>
    <path class="cls-9" d="M223.2,94.5c1.4,1.4-1.6,2.5,1.3,5.3l1,1a6.7,6.7,0,0,0,.5,3.8l2.7,2.7,3.7-3.7-9.1-9.1Z"/>
    <path class="cls-9" d="M226.1,97.2a7.6,7.6,0,1,0,10.7,0,7.6,7.6,0,0,0-10.7,0Z"/>
    <path class="cls-10" d="M228.8,100a3.7,3.7,0,1,0,5.2,0,3.7,3.7,0,0,0-5.2,0Z"/>
    <path class="cls-3" d="M229.9,101a2.2,2.2,0,1,0,3.1,0,2.2,2.2,0,0,0-3.1,0Z"/>
    <path class="cls-9" d="M216.1,81.3l-3.5-3.5a2.2,2.2,0,0,0-3.1,0h0a2.2,2.2,0,0,0,0,3.1l3.5,3.5a2.2,2.2,0,0,0,3.1,0h0a2.2,2.2,0,0,0,0-3.1Z"/>
    <path class="cls-12" d="M220.2,101.4a1.7,1.7,0,0,1,1.2,3,2.3,2.3,0,1,0,3.9,1.7h3.5a5.7,5.7,0,1,1-9.8-4.1,1.7,1.7,0,0,1,1.2-.5Z"/>
    <polygon class="cls-12" points="225.3 106 225.3 100 228.7 100 228.7 106 225.3 106 225.3 106"/>
    <path class="cls-2" d="M204.8,100.1h10.3v14.8A5.2,5.2,0,0,1,210,120h0a5.2,5.2,0,0,1-5.2-5.2V100.1Z"/>
    <path class="cls-48" d="M189.1,182.3v16.9c0,2.6,3.7.8,3.7,6.1V207a8.7,8.7,0,1,1-10.2,0v-1.8c0-5.2,3.7-3.4,3.7-6.1V182.3Z"/>
    <path class="cls-49" d="M189.1,199.1c0,2.6,3.7.8,3.7,6.1V207a8.7,8.7,0,0,1,3,3.9v4.9h-6.8V199.1Z"/>
    <path class="cls-34" d="M187.8,205.4a8.7,8.7,0,1,1-8.7,8.7,8.7,8.7,0,0,1,8.7-8.7Z"/>
    <path class="cls-18" d="M187.8,210.3a3.8,3.8,0,1,1-3.8,3.8,3.8,3.8,0,0,1,3.8-3.8Z"/>
    <path class="cls-1" d="M187.8,211.6a2.5,2.5,0,1,1-2.5,2.5,2.5,2.5,0,0,1,2.5-2.5Z"/>
    <path class="cls-48" d="M186.5,187.3v-6.6a2.8,2.8,0,0,1,2.8-2.8h2.8v6.6a2.8,2.8,0,0,1-2.8,2.8Z"/>
    <polygon class="cls-48" points="189.6 177.9 195.2 177.9 191.9 185.5 189.6 177.9 189.6 177.9"/>
    <path class="cls-23" d="M206.9,63.6c-1.3.9-2.7,1.9-3.8,2.8a1.1,1.1,0,0,0,.7,1.9h.3l17.7-5V61.1l-17.7-5h-.3a1.1,1.1,0,0,0-.7,1.9c1.2,1,2.5,1.9,3.8,2.8h0a1.6,1.6,0,0,1,0,2.7Z"/>
    <polygon class="cls-10" points="239.4 63.3 239.4 61.1 214.8 61.1 214.8 63.3 239.4 63.3 239.4 63.3"/>
    <path class="cls-23" d="M237.4,61.1h2a15.7,15.7,0,0,0,8.2-2.3l.7,1.3a16,16,0,0,1-6.1,5.4,2.9,2.9,0,0,0-2.8-2.3h-2.1V61.1Z"/>
    <path class="cls-10" d="M246.9,60.7a.5.5,0,1,0-.1.7.5.5,0,0,0,.1-.7Z"/>
    <path class="cls-10" d="M245.3,61.9a.5.5,0,1,0-.1.7.5.5,0,0,0,.1-.7Z"/>
    <path class="cls-10" d="M243.8,63.1a.5.5,0,1,0-.8.6.5.5,0,0,0,.8-.6Z"/>
    <path class="cls-9" d="M212.9,63.4V61a.7.7,0,0,0-.7-.7h0a.7.7,0,0,0-.7.7v2.3a.7.7,0,0,0,.7.7h0a.7.7,0,0,0,.7-.7Z"/>
    <polygon class="cls-10" points="149.5 301.4 100.5 301.4 100.5 350.5 149.5 350.5 149.5 301.4 149.5 301.4"/>
    <path class="cls-9" d="M149.5,334.7v15.7h-49V334.7a9.3,9.3,0,0,1,12.9.3l1.2,1.2h0l3.7,3.7a9.3,9.3,0,0,0,13.2,0l3.7-3.7h0l1.2-1.2a9.3,9.3,0,0,1,12.9-.3Z"/>
    <path class="cls-8" d="M149.5,342.7v7.7h-49v-7.7l3.6-3.6a7.9,7.9,0,0,1,11.1,0l1,1h0l3.1,3.1a7.9,7.9,0,0,0,11.1,0l3.1-3.1h0l1-1a7.9,7.9,0,0,1,11.1,0l3.6,3.6Z"/>
    <path class="cls-3" d="M112.7,328.2h24.6V315.8A12.4,12.4,0,0,0,125,303.5h0a12.4,12.4,0,0,0-12.3,12.3v12.3Z"/>
    <path class="cls-6" d="M137.3,327.9v4.9a12.3,12.3,0,1,1-24.6,0v-4.9Z"/>
    <path class="cls-4" d="M125,318.8h0a8,8,0,0,1,8,8v13.6a8,8,0,0,1-8,8h0a8,8,0,0,1-8-8V326.8a8,8,0,0,1,8-8Z"/>
    <path class="cls-6" d="M116.7,324.1h16.6a4,4,0,0,1,4,4h0a4,4,0,0,1-4,4h-3a4,4,0,0,1-4-4v-1a1.3,1.3,0,0,0-1.3-1.3h0a1.3,1.3,0,0,0-1.3,1.3v1a4,4,0,0,1-4,4h-3a4,4,0,0,1-4-4h0a4,4,0,0,1,4-4Z"/>
    <path class="cls-7" d="M122.3,325.5h-5.6a2.6,2.6,0,0,0,0,5.2h3a2.6,2.6,0,0,0,2.6-2.6v-2.6Z"/>
    <path class="cls-7" d="M127.7,325.5h5.6a2.6,2.6,0,0,1,0,5.2h-3a2.6,2.6,0,0,1-2.6-2.6v-2.6Z"/>
    <path class="cls-8" d="M125,331.6h0a5.4,5.4,0,0,1,5.4,5.4v3.6A5.4,5.4,0,0,1,125,346h0a5.4,5.4,0,0,1-5.4-5.4V337a5.4,5.4,0,0,1,5.4-5.4Z"/>
    <path class="cls-7" d="M125,333h0a4,4,0,0,1,4,4v3.6a4,4,0,0,1-4,4h0a4,4,0,0,1-4-4V337a4,4,0,0,1,4-4Z"/>
    <path class="cls-50" d="M128,343.2a4,4,0,0,1-3,1.4h0a4,4,0,0,1-3-1.4,1.6,1.6,0,0,1,1.5-1h3.1a1.6,1.6,0,0,1,1.5,1Z"/>
    <path class="cls-50" d="M125,333h0a4,4,0,0,1,2.9,1.2,1.6,1.6,0,0,1-1.3.7h-3.1a1.6,1.6,0,0,1-1.3-.7A4,4,0,0,1,125,333Z"/>
    <polygon class="cls-51" points="199.8 226.1 150.7 226.1 150.7 275.1 199.8 275.1 199.8 226.1 199.8 226.1"/>
    <path class="cls-9" d="M187.8,241.1l4.7,11.6h0a1.7,1.7,0,0,1-1.5,2.4H189v7.5a4.1,4.1,0,0,1-4.1,4.1H179v8.3H162.3V256.2a15.2,15.2,0,1,1,25.5-15Z"/>
    <path class="cls-10" d="M178.2,237.9a8.5,8.5,0,1,1-8.5,8.5,8.5,8.5,0,0,1,8.5-8.5Z"/>
    <path class="cls-1" d="M178.2,240a6.3,6.3,0,1,1-6.3,6.3,6.3,6.3,0,0,1,6.3-6.3Z"/>
    <path class="cls-1" d="M178.2,250.5a4.2,4.2,0,1,0-4.2-4.2,4.2,4.2,0,0,0,4.2,4.2Z"/>
    <path class="cls-10" d="M178.2,250.5a4.2,4.2,0,1,0-4.2-4.2,4.2,4.2,0,0,0,4.2,4.2Z"/>
    <path class="cls-1" d="M178.2,248.3a2,2,0,1,0-2-2,2,2,0,0,0,2,2Z"/>
    <polygon class="cls-10" points="181.2 253.6 179 253.6 179 275.1 181.2 275.1 181.2 253.6 181.2 253.6"/>
    <path class="cls-50" d="M178.2,234h.8v.9h-.8a11.4,11.4,0,0,0-2.2,22.7v.9a12.3,12.3,0,0,1,2.2-24.5Z"/>
  </g>
</svg>
